ISO-10303-21;
HEADER;
/* Generated by software containing ST-Developer
 * from STEP Tools, Inc. (www.steptools.com) 
 */
/* OPTION: using custom renumber hook */

FILE_DESCRIPTION(
/* description */ ('STEP AP242 Edition 2',
'CAx-IF Rec.Pracs.---Representation and Presentation of Product Manufa
cturing Information (PMI)---4.0---2014-10-13',
'CAx-IF Rec.Pracs.---3D Tessellated Geometry---0.4---2014-09-14','2;1',
'CAx-IF Rec.Pracs.---User Defined Attributes---1.5---2016-08-15'),
/* implementation_level */ '2;1');

FILE_NAME(
/* name */ 'HULL',
/* time_stamp */ '2026-09-15T16:59:57Z',
/* author */ (''),
/* organization */ (''),
/* preprocessor_version */ 'ST-DEVELOPER v20',
/* originating_system */ 'ONSHAPE BY PTC INC, 1.220',
/* authorisation */ '  ');

FILE_SCHEMA (('AP242_MANAGED_MODEL_BASED_3D_ENGINEERING_MIM_LF { 1 0 10303 442 3 1 4 }'));
ENDSEC;

DATA;
#10=SHAPE_REPRESENTATION_RELATIONSHIP('','',#1105,#11);
#11=ADVANCED_BREP_SHAPE_REPRESENTATION('',(#1103),#1853);
#12=CYLINDRICAL_SURFACE('',#1125,0.1524);
#13=CYLINDRICAL_SURFACE('',#1127,0.1524);
#14=CYLINDRICAL_SURFACE('',#1134,0.14986);
#15=CYLINDRICAL_SURFACE('',#1136,0.14986);
#16=CYLINDRICAL_SURFACE('',#1140,0.004445);
#17=CYLINDRICAL_SURFACE('',#1144,0.0015625);
#18=CYLINDRICAL_SURFACE('',#1147,0.0015625);
#19=CYLINDRICAL_SURFACE('',#1150,0.0015625);
#20=CYLINDRICAL_SURFACE('',#1153,0.0015625);
#21=CYLINDRICAL_SURFACE('',#1156,0.003675);
#22=CYLINDRICAL_SURFACE('',#1160,0.003675);
#23=CYLINDRICAL_SURFACE('',#1164,0.003675);
#24=CYLINDRICAL_SURFACE('',#1168,0.003675);
#25=CYLINDRICAL_SURFACE('',#1183,0.003675);
#26=CYLINDRICAL_SURFACE('',#1187,0.003675);
#27=CYLINDRICAL_SURFACE('',#1191,0.003675);
#28=CYLINDRICAL_SURFACE('',#1195,0.0015625);
#29=CYLINDRICAL_SURFACE('',#1198,0.0015625);
#30=CYLINDRICAL_SURFACE('',#1201,0.0015625);
#31=CYLINDRICAL_SURFACE('',#1204,0.0015625);
#32=CYLINDRICAL_SURFACE('',#1207,0.003675);
#33=CYLINDRICAL_SURFACE('',#1218,0.002);
#34=CYLINDRICAL_SURFACE('',#1219,0.002);
#35=CYLINDRICAL_SURFACE('',#1220,0.002);
#36=CYLINDRICAL_SURFACE('',#1221,0.002);
#37=CIRCLE('',#1108,0.003675);
#38=CIRCLE('',#1109,0.003675);
#39=CIRCLE('',#1110,0.003675);
#40=CIRCLE('',#1111,0.003675);
#41=CIRCLE('',#1113,0.003675);
#42=CIRCLE('',#1114,0.003675);
#43=CIRCLE('',#1115,0.003675);
#44=CIRCLE('',#1116,0.003675);
#45=CIRCLE('',#1118,0.1524);
#46=CIRCLE('',#1119,0.1524);
#47=CIRCLE('',#1120,0.14986);
#48=CIRCLE('',#1121,0.14986);
#49=CIRCLE('',#1123,0.004445);
#50=CIRCLE('',#1126,0.1524);
#51=CIRCLE('',#1128,0.1524);
#52=CIRCLE('',#1132,0.004445);
#53=CIRCLE('',#1135,0.14986);
#54=CIRCLE('',#1137,0.14986);
#55=CIRCLE('',#1145,0.0015625);
#56=CIRCLE('',#1146,0.0015625);
#57=CIRCLE('',#1148,0.0015625);
#58=CIRCLE('',#1149,0.0015625);
#59=CIRCLE('',#1151,0.0015625);
#60=CIRCLE('',#1152,0.0015625);
#61=CIRCLE('',#1154,0.0015625);
#62=CIRCLE('',#1155,0.0015625);
#63=CIRCLE('',#1157,0.003675);
#64=CIRCLE('',#1161,0.003675);
#65=CIRCLE('',#1165,0.003675);
#66=CIRCLE('',#1169,0.003675);
#67=CIRCLE('',#1173,0.002);
#68=CIRCLE('',#1174,0.002);
#69=CIRCLE('',#1175,0.002);
#70=CIRCLE('',#1176,0.002);
#71=CIRCLE('',#1184,0.003675);
#72=CIRCLE('',#1188,0.003675);
#73=CIRCLE('',#1192,0.003675);
#74=CIRCLE('',#1196,0.0015625);
#75=CIRCLE('',#1197,0.0015625);
#76=CIRCLE('',#1199,0.0015625);
#77=CIRCLE('',#1200,0.0015625);
#78=CIRCLE('',#1202,0.0015625);
#79=CIRCLE('',#1203,0.0015625);
#80=CIRCLE('',#1205,0.0015625);
#81=CIRCLE('',#1206,0.0015625);
#82=CIRCLE('',#1208,0.003675);
#83=CIRCLE('',#1210,0.002);
#84=CIRCLE('',#1211,0.002);
#85=CIRCLE('',#1212,0.002);
#86=CIRCLE('',#1213,0.002);
#87=ORIENTED_EDGE('',*,*,#367,.T.);
#88=ORIENTED_EDGE('',*,*,#368,.F.);
#89=ORIENTED_EDGE('',*,*,#369,.F.);
#90=ORIENTED_EDGE('',*,*,#370,.T.);
#91=ORIENTED_EDGE('',*,*,#371,.T.);
#92=ORIENTED_EDGE('',*,*,#372,.T.);
#93=ORIENTED_EDGE('',*,*,#373,.T.);
#94=ORIENTED_EDGE('',*,*,#374,.T.);
#95=ORIENTED_EDGE('',*,*,#375,.T.);
#96=ORIENTED_EDGE('',*,*,#376,.T.);
#97=ORIENTED_EDGE('',*,*,#377,.T.);
#98=ORIENTED_EDGE('',*,*,#378,.T.);
#99=ORIENTED_EDGE('',*,*,#379,.T.);
#100=ORIENTED_EDGE('',*,*,#380,.T.);
#101=ORIENTED_EDGE('',*,*,#381,.T.);
#102=ORIENTED_EDGE('',*,*,#382,.T.);
#103=ORIENTED_EDGE('',*,*,#383,.F.);
#104=ORIENTED_EDGE('',*,*,#384,.F.);
#105=ORIENTED_EDGE('',*,*,#385,.T.);
#106=ORIENTED_EDGE('',*,*,#386,.T.);
#107=ORIENTED_EDGE('',*,*,#387,.F.);
#108=ORIENTED_EDGE('',*,*,#388,.F.);
#109=ORIENTED_EDGE('',*,*,#389,.F.);
#110=ORIENTED_EDGE('',*,*,#390,.F.);
#111=ORIENTED_EDGE('',*,*,#391,.F.);
#112=ORIENTED_EDGE('',*,*,#392,.F.);
#113=ORIENTED_EDGE('',*,*,#393,.F.);
#114=ORIENTED_EDGE('',*,*,#394,.F.);
#115=ORIENTED_EDGE('',*,*,#395,.F.);
#116=ORIENTED_EDGE('',*,*,#396,.F.);
#117=ORIENTED_EDGE('',*,*,#397,.F.);
#118=ORIENTED_EDGE('',*,*,#398,.F.);
#119=ORIENTED_EDGE('',*,*,#399,.F.);
#120=ORIENTED_EDGE('',*,*,#400,.T.);
#121=ORIENTED_EDGE('',*,*,#401,.T.);
#122=ORIENTED_EDGE('',*,*,#402,.T.);
#123=ORIENTED_EDGE('',*,*,#403,.F.);
#124=ORIENTED_EDGE('',*,*,#404,.F.);
#125=ORIENTED_EDGE('',*,*,#405,.T.);
#126=ORIENTED_EDGE('',*,*,#406,.T.);
#127=ORIENTED_EDGE('',*,*,#407,.F.);
#128=ORIENTED_EDGE('',*,*,#408,.F.);
#129=ORIENTED_EDGE('',*,*,#409,.F.);
#130=ORIENTED_EDGE('',*,*,#410,.F.);
#131=ORIENTED_EDGE('',*,*,#411,.F.);
#132=ORIENTED_EDGE('',*,*,#399,.T.);
#133=ORIENTED_EDGE('',*,*,#412,.T.);
#134=ORIENTED_EDGE('',*,*,#413,.T.);
#135=ORIENTED_EDGE('',*,*,#414,.F.);
#136=ORIENTED_EDGE('',*,*,#400,.F.);
#137=ORIENTED_EDGE('',*,*,#411,.T.);
#138=ORIENTED_EDGE('',*,*,#415,.T.);
#139=ORIENTED_EDGE('',*,*,#416,.F.);
#140=ORIENTED_EDGE('',*,*,#401,.F.);
#141=ORIENTED_EDGE('',*,*,#414,.T.);
#142=ORIENTED_EDGE('',*,*,#417,.T.);
#143=ORIENTED_EDGE('',*,*,#418,.F.);
#144=ORIENTED_EDGE('',*,*,#402,.F.);
#145=ORIENTED_EDGE('',*,*,#416,.T.);
#146=ORIENTED_EDGE('',*,*,#419,.F.);
#147=ORIENTED_EDGE('',*,*,#412,.F.);
#148=ORIENTED_EDGE('',*,*,#403,.T.);
#149=ORIENTED_EDGE('',*,*,#418,.T.);
#150=ORIENTED_EDGE('',*,*,#410,.T.);
#151=ORIENTED_EDGE('',*,*,#419,.T.);
#152=ORIENTED_EDGE('',*,*,#417,.F.);
#153=ORIENTED_EDGE('',*,*,#415,.F.);
#154=ORIENTED_EDGE('',*,*,#413,.F.);
#155=ORIENTED_EDGE('',*,*,#420,.T.);
#156=ORIENTED_EDGE('',*,*,#421,.T.);
#157=ORIENTED_EDGE('',*,*,#422,.F.);
#158=ORIENTED_EDGE('',*,*,#405,.F.);
#159=ORIENTED_EDGE('',*,*,#423,.T.);
#160=ORIENTED_EDGE('',*,*,#424,.F.);
#161=ORIENTED_EDGE('',*,*,#423,.F.);
#162=ORIENTED_EDGE('',*,*,#404,.T.);
#163=ORIENTED_EDGE('',*,*,#425,.T.);
#164=ORIENTED_EDGE('',*,*,#426,.F.);
#165=ORIENTED_EDGE('',*,*,#425,.F.);
#166=ORIENTED_EDGE('',*,*,#408,.T.);
#167=ORIENTED_EDGE('',*,*,#427,.T.);
#168=ORIENTED_EDGE('',*,*,#428,.F.);
#169=ORIENTED_EDGE('',*,*,#427,.F.);
#170=ORIENTED_EDGE('',*,*,#407,.T.);
#171=ORIENTED_EDGE('',*,*,#429,.T.);
#172=ORIENTED_EDGE('',*,*,#430,.T.);
#173=ORIENTED_EDGE('',*,*,#429,.F.);
#174=ORIENTED_EDGE('',*,*,#406,.F.);
#175=ORIENTED_EDGE('',*,*,#422,.T.);
#176=ORIENTED_EDGE('',*,*,#431,.T.);
#177=ORIENTED_EDGE('',*,*,#383,.T.);
#178=ORIENTED_EDGE('',*,*,#432,.F.);
#179=ORIENTED_EDGE('',*,*,#367,.F.);
#180=ORIENTED_EDGE('',*,*,#421,.F.);
#181=ORIENTED_EDGE('',*,*,#424,.T.);
#182=ORIENTED_EDGE('',*,*,#426,.T.);
#183=ORIENTED_EDGE('',*,*,#428,.T.);
#184=ORIENTED_EDGE('',*,*,#430,.F.);
#185=ORIENTED_EDGE('',*,*,#409,.T.);
#186=ORIENTED_EDGE('',*,*,#420,.F.);
#187=ORIENTED_EDGE('',*,*,#431,.F.);
#188=ORIENTED_EDGE('',*,*,#370,.F.);
#189=ORIENTED_EDGE('',*,*,#433,.T.);
#190=ORIENTED_EDGE('',*,*,#384,.T.);
#191=ORIENTED_EDGE('',*,*,#432,.T.);
#192=ORIENTED_EDGE('',*,*,#386,.F.);
#193=ORIENTED_EDGE('',*,*,#434,.F.);
#194=ORIENTED_EDGE('',*,*,#368,.T.);
#195=ORIENTED_EDGE('',*,*,#433,.F.);
#196=ORIENTED_EDGE('',*,*,#369,.T.);
#197=ORIENTED_EDGE('',*,*,#434,.T.);
#198=ORIENTED_EDGE('',*,*,#385,.F.);
#199=ORIENTED_EDGE('',*,*,#435,.T.);
#200=ORIENTED_EDGE('',*,*,#436,.T.);
#201=ORIENTED_EDGE('',*,*,#437,.T.);
#202=ORIENTED_EDGE('',*,*,#438,.T.);
#203=ORIENTED_EDGE('',*,*,#439,.T.);
#204=ORIENTED_EDGE('',*,*,#440,.T.);
#205=ORIENTED_EDGE('',*,*,#441,.T.);
#206=ORIENTED_EDGE('',*,*,#442,.T.);
#207=ORIENTED_EDGE('',*,*,#443,.T.);
#208=ORIENTED_EDGE('',*,*,#398,.T.);
#209=ORIENTED_EDGE('',*,*,#444,.F.);
#210=ORIENTED_EDGE('',*,*,#445,.T.);
#211=ORIENTED_EDGE('',*,*,#444,.T.);
#212=ORIENTED_EDGE('',*,*,#397,.T.);
#213=ORIENTED_EDGE('',*,*,#446,.F.);
#214=ORIENTED_EDGE('',*,*,#447,.T.);
#215=ORIENTED_EDGE('',*,*,#446,.T.);
#216=ORIENTED_EDGE('',*,*,#396,.T.);
#217=ORIENTED_EDGE('',*,*,#448,.F.);
#218=ORIENTED_EDGE('',*,*,#449,.T.);
#219=ORIENTED_EDGE('',*,*,#448,.T.);
#220=ORIENTED_EDGE('',*,*,#395,.T.);
#221=ORIENTED_EDGE('',*,*,#450,.F.);
#222=ORIENTED_EDGE('',*,*,#451,.T.);
#223=ORIENTED_EDGE('',*,*,#450,.T.);
#224=ORIENTED_EDGE('',*,*,#394,.T.);
#225=ORIENTED_EDGE('',*,*,#452,.F.);
#226=ORIENTED_EDGE('',*,*,#453,.T.);
#227=ORIENTED_EDGE('',*,*,#452,.T.);
#228=ORIENTED_EDGE('',*,*,#393,.T.);
#229=ORIENTED_EDGE('',*,*,#454,.F.);
#230=ORIENTED_EDGE('',*,*,#455,.T.);
#231=ORIENTED_EDGE('',*,*,#454,.T.);
#232=ORIENTED_EDGE('',*,*,#392,.T.);
#233=ORIENTED_EDGE('',*,*,#456,.F.);
#234=ORIENTED_EDGE('',*,*,#457,.T.);
#235=ORIENTED_EDGE('',*,*,#456,.T.);
#236=ORIENTED_EDGE('',*,*,#391,.T.);
#237=ORIENTED_EDGE('',*,*,#458,.F.);
#238=ORIENTED_EDGE('',*,*,#459,.T.);
#239=ORIENTED_EDGE('',*,*,#458,.T.);
#240=ORIENTED_EDGE('',*,*,#390,.T.);
#241=ORIENTED_EDGE('',*,*,#460,.F.);
#242=ORIENTED_EDGE('',*,*,#461,.T.);
#243=ORIENTED_EDGE('',*,*,#460,.T.);
#244=ORIENTED_EDGE('',*,*,#389,.T.);
#245=ORIENTED_EDGE('',*,*,#462,.F.);
#246=ORIENTED_EDGE('',*,*,#463,.T.);
#247=ORIENTED_EDGE('',*,*,#462,.T.);
#248=ORIENTED_EDGE('',*,*,#388,.T.);
#249=ORIENTED_EDGE('',*,*,#464,.F.);
#250=ORIENTED_EDGE('',*,*,#465,.T.);
#251=ORIENTED_EDGE('',*,*,#464,.T.);
#252=ORIENTED_EDGE('',*,*,#387,.T.);
#253=ORIENTED_EDGE('',*,*,#443,.F.);
#254=ORIENTED_EDGE('',*,*,#466,.T.);
#255=ORIENTED_EDGE('',*,*,#467,.T.);
#256=ORIENTED_EDGE('',*,*,#468,.T.);
#257=ORIENTED_EDGE('',*,*,#469,.T.);
#258=ORIENTED_EDGE('',*,*,#470,.T.);
#259=ORIENTED_EDGE('',*,*,#466,.F.);
#260=ORIENTED_EDGE('',*,*,#445,.F.);
#261=ORIENTED_EDGE('',*,*,#447,.F.);
#262=ORIENTED_EDGE('',*,*,#449,.F.);
#263=ORIENTED_EDGE('',*,*,#451,.F.);
#264=ORIENTED_EDGE('',*,*,#453,.F.);
#265=ORIENTED_EDGE('',*,*,#455,.F.);
#266=ORIENTED_EDGE('',*,*,#457,.F.);
#267=ORIENTED_EDGE('',*,*,#459,.F.);
#268=ORIENTED_EDGE('',*,*,#461,.F.);
#269=ORIENTED_EDGE('',*,*,#463,.F.);
#270=ORIENTED_EDGE('',*,*,#465,.F.);
#271=ORIENTED_EDGE('',*,*,#442,.F.);
#272=ORIENTED_EDGE('',*,*,#440,.F.);
#273=ORIENTED_EDGE('',*,*,#438,.F.);
#274=ORIENTED_EDGE('',*,*,#436,.F.);
#275=ORIENTED_EDGE('',*,*,#441,.F.);
#276=ORIENTED_EDGE('',*,*,#439,.F.);
#277=ORIENTED_EDGE('',*,*,#437,.F.);
#278=ORIENTED_EDGE('',*,*,#435,.F.);
#279=ORIENTED_EDGE('',*,*,#372,.F.);
#280=ORIENTED_EDGE('',*,*,#471,.T.);
#281=ORIENTED_EDGE('',*,*,#472,.F.);
#282=ORIENTED_EDGE('',*,*,#473,.F.);
#283=ORIENTED_EDGE('',*,*,#371,.F.);
#284=ORIENTED_EDGE('',*,*,#474,.T.);
#285=ORIENTED_EDGE('',*,*,#475,.F.);
#286=ORIENTED_EDGE('',*,*,#471,.F.);
#287=ORIENTED_EDGE('',*,*,#382,.F.);
#288=ORIENTED_EDGE('',*,*,#476,.T.);
#289=ORIENTED_EDGE('',*,*,#477,.F.);
#290=ORIENTED_EDGE('',*,*,#474,.F.);
#291=ORIENTED_EDGE('',*,*,#381,.F.);
#292=ORIENTED_EDGE('',*,*,#478,.T.);
#293=ORIENTED_EDGE('',*,*,#479,.F.);
#294=ORIENTED_EDGE('',*,*,#476,.F.);
#295=ORIENTED_EDGE('',*,*,#380,.F.);
#296=ORIENTED_EDGE('',*,*,#480,.T.);
#297=ORIENTED_EDGE('',*,*,#481,.F.);
#298=ORIENTED_EDGE('',*,*,#478,.F.);
#299=ORIENTED_EDGE('',*,*,#379,.F.);
#300=ORIENTED_EDGE('',*,*,#482,.T.);
#301=ORIENTED_EDGE('',*,*,#483,.F.);
#302=ORIENTED_EDGE('',*,*,#480,.F.);
#303=ORIENTED_EDGE('',*,*,#378,.F.);
#304=ORIENTED_EDGE('',*,*,#484,.T.);
#305=ORIENTED_EDGE('',*,*,#485,.F.);
#306=ORIENTED_EDGE('',*,*,#482,.F.);
#307=ORIENTED_EDGE('',*,*,#377,.F.);
#308=ORIENTED_EDGE('',*,*,#486,.T.);
#309=ORIENTED_EDGE('',*,*,#487,.F.);
#310=ORIENTED_EDGE('',*,*,#484,.F.);
#311=ORIENTED_EDGE('',*,*,#376,.F.);
#312=ORIENTED_EDGE('',*,*,#488,.T.);
#313=ORIENTED_EDGE('',*,*,#489,.F.);
#314=ORIENTED_EDGE('',*,*,#486,.F.);
#315=ORIENTED_EDGE('',*,*,#375,.F.);
#316=ORIENTED_EDGE('',*,*,#490,.T.);
#317=ORIENTED_EDGE('',*,*,#491,.F.);
#318=ORIENTED_EDGE('',*,*,#488,.F.);
#319=ORIENTED_EDGE('',*,*,#374,.F.);
#320=ORIENTED_EDGE('',*,*,#492,.T.);
#321=ORIENTED_EDGE('',*,*,#493,.F.);
#322=ORIENTED_EDGE('',*,*,#490,.F.);
#323=ORIENTED_EDGE('',*,*,#494,.F.);
#324=ORIENTED_EDGE('',*,*,#495,.F.);
#325=ORIENTED_EDGE('',*,*,#496,.F.);
#326=ORIENTED_EDGE('',*,*,#497,.F.);
#327=ORIENTED_EDGE('',*,*,#498,.F.);
#328=ORIENTED_EDGE('',*,*,#499,.F.);
#329=ORIENTED_EDGE('',*,*,#500,.F.);
#330=ORIENTED_EDGE('',*,*,#501,.F.);
#331=ORIENTED_EDGE('',*,*,#373,.F.);
#332=ORIENTED_EDGE('',*,*,#473,.T.);
#333=ORIENTED_EDGE('',*,*,#502,.F.);
#334=ORIENTED_EDGE('',*,*,#492,.F.);
#335=ORIENTED_EDGE('',*,*,#503,.F.);
#336=ORIENTED_EDGE('',*,*,#504,.F.);
#337=ORIENTED_EDGE('',*,*,#505,.F.);
#338=ORIENTED_EDGE('',*,*,#506,.F.);
#339=ORIENTED_EDGE('',*,*,#472,.T.);
#340=ORIENTED_EDGE('',*,*,#475,.T.);
#341=ORIENTED_EDGE('',*,*,#477,.T.);
#342=ORIENTED_EDGE('',*,*,#479,.T.);
#343=ORIENTED_EDGE('',*,*,#481,.T.);
#344=ORIENTED_EDGE('',*,*,#483,.T.);
#345=ORIENTED_EDGE('',*,*,#485,.T.);
#346=ORIENTED_EDGE('',*,*,#487,.T.);
#347=ORIENTED_EDGE('',*,*,#489,.T.);
#348=ORIENTED_EDGE('',*,*,#491,.T.);
#349=ORIENTED_EDGE('',*,*,#493,.T.);
#350=ORIENTED_EDGE('',*,*,#502,.T.);
#351=ORIENTED_EDGE('',*,*,#500,.T.);
#352=ORIENTED_EDGE('',*,*,#498,.T.);
#353=ORIENTED_EDGE('',*,*,#496,.T.);
#354=ORIENTED_EDGE('',*,*,#494,.T.);
#355=ORIENTED_EDGE('',*,*,#501,.T.);
#356=ORIENTED_EDGE('',*,*,#499,.T.);
#357=ORIENTED_EDGE('',*,*,#497,.T.);
#358=ORIENTED_EDGE('',*,*,#495,.T.);
#359=ORIENTED_EDGE('',*,*,#470,.F.);
#360=ORIENTED_EDGE('',*,*,#506,.T.);
#361=ORIENTED_EDGE('',*,*,#469,.F.);
#362=ORIENTED_EDGE('',*,*,#505,.T.);
#363=ORIENTED_EDGE('',*,*,#468,.F.);
#364=ORIENTED_EDGE('',*,*,#504,.T.);
#365=ORIENTED_EDGE('',*,*,#467,.F.);
#366=ORIENTED_EDGE('',*,*,#503,.T.);
#367=EDGE_CURVE('',#507,#508,#609,.T.);
#368=EDGE_CURVE('',#509,#508,#610,.T.);
#369=EDGE_CURVE('',#510,#509,#611,.T.);
#370=EDGE_CURVE('',#510,#507,#612,.T.);
#371=EDGE_CURVE('',#511,#512,#613,.T.);
#372=EDGE_CURVE('',#512,#513,#614,.T.);
#373=EDGE_CURVE('',#513,#514,#37,.T.);
#374=EDGE_CURVE('',#514,#515,#615,.T.);
#375=EDGE_CURVE('',#515,#516,#616,.T.);
#376=EDGE_CURVE('',#516,#517,#38,.T.);
#377=EDGE_CURVE('',#517,#518,#617,.T.);
#378=EDGE_CURVE('',#518,#519,#618,.T.);
#379=EDGE_CURVE('',#519,#520,#39,.T.);
#380=EDGE_CURVE('',#520,#521,#619,.T.);
#381=EDGE_CURVE('',#521,#522,#620,.T.);
#382=EDGE_CURVE('',#522,#511,#40,.T.);
#383=EDGE_CURVE('',#523,#524,#621,.T.);
#384=EDGE_CURVE('',#525,#523,#622,.T.);
#385=EDGE_CURVE('',#525,#526,#623,.T.);
#386=EDGE_CURVE('',#526,#524,#624,.T.);
#387=EDGE_CURVE('',#527,#528,#625,.T.);
#388=EDGE_CURVE('',#529,#527,#626,.T.);
#389=EDGE_CURVE('',#530,#529,#41,.T.);
#390=EDGE_CURVE('',#531,#530,#627,.T.);
#391=EDGE_CURVE('',#532,#531,#628,.T.);
#392=EDGE_CURVE('',#533,#532,#42,.T.);
#393=EDGE_CURVE('',#534,#533,#629,.T.);
#394=EDGE_CURVE('',#535,#534,#630,.T.);
#395=EDGE_CURVE('',#536,#535,#43,.T.);
#396=EDGE_CURVE('',#537,#536,#631,.T.);
#397=EDGE_CURVE('',#538,#537,#632,.T.);
#398=EDGE_CURVE('',#528,#538,#44,.T.);
#399=EDGE_CURVE('',#539,#540,#633,.T.);
#400=EDGE_CURVE('',#539,#541,#634,.T.);
#401=EDGE_CURVE('',#541,#542,#45,.T.);
#402=EDGE_CURVE('',#542,#543,#46,.T.);
#403=EDGE_CURVE('',#540,#543,#635,.T.);
#404=EDGE_CURVE('',#544,#545,#636,.T.);
#405=EDGE_CURVE('',#544,#546,#637,.T.);
#406=EDGE_CURVE('',#546,#547,#638,.T.);
#407=EDGE_CURVE('',#548,#547,#47,.T.);
#408=EDGE_CURVE('',#545,#548,#48,.T.);
#409=EDGE_CURVE('',#549,#549,#49,.T.);
#410=EDGE_CURVE('',#550,#551,#639,.T.);
#411=EDGE_CURVE('',#539,#550,#640,.T.);
#412=EDGE_CURVE('',#540,#551,#641,.T.);
#413=EDGE_CURVE('',#550,#552,#642,.T.);
#414=EDGE_CURVE('',#541,#552,#643,.T.);
#415=EDGE_CURVE('',#552,#553,#50,.T.);
#416=EDGE_CURVE('',#542,#553,#644,.T.);
#417=EDGE_CURVE('',#553,#554,#51,.T.);
#418=EDGE_CURVE('',#543,#554,#645,.T.);
#419=EDGE_CURVE('',#551,#554,#646,.T.);
#420=EDGE_CURVE('',#555,#555,#52,.T.);
#421=EDGE_CURVE('',#556,#557,#647,.T.);
#422=EDGE_CURVE('',#546,#557,#648,.T.);
#423=EDGE_CURVE('',#544,#556,#649,.T.);
#424=EDGE_CURVE('',#556,#558,#650,.T.);
#425=EDGE_CURVE('',#545,#558,#651,.T.);
#426=EDGE_CURVE('',#558,#559,#53,.T.);
#427=EDGE_CURVE('',#548,#559,#652,.T.);
#428=EDGE_CURVE('',#559,#560,#54,.T.);
#429=EDGE_CURVE('',#547,#560,#653,.F.);
#430=EDGE_CURVE('',#557,#560,#654,.T.);
#431=EDGE_CURVE('',#507,#523,#655,.T.);
#432=EDGE_CURVE('',#508,#524,#656,.T.);
#433=EDGE_CURVE('',#510,#525,#657,.T.);
#434=EDGE_CURVE('',#509,#526,#658,.T.);
#435=EDGE_CURVE('',#561,#561,#55,.F.);
#436=EDGE_CURVE('NONE',#562,#562,#56,.F.);
#437=EDGE_CURVE('',#563,#563,#57,.F.);
#438=EDGE_CURVE('NONE',#564,#564,#58,.F.);
#439=EDGE_CURVE('',#565,#565,#59,.F.);
#440=EDGE_CURVE('NONE',#566,#566,#60,.F.);
#441=EDGE_CURVE('',#567,#567,#61,.F.);
#442=EDGE_CURVE('NONE',#568,#568,#62,.F.);
#443=EDGE_CURVE('',#569,#528,#659,.T.);
#444=EDGE_CURVE('',#570,#538,#660,.T.);
#445=EDGE_CURVE('NONE',#570,#569,#63,.F.);
#446=EDGE_CURVE('',#571,#537,#661,.T.);
#447=EDGE_CURVE('NONE',#571,#570,#662,.F.);
#448=EDGE_CURVE('',#572,#536,#663,.T.);
#449=EDGE_CURVE('NONE',#572,#571,#664,.T.);
#450=EDGE_CURVE('',#573,#535,#665,.T.);
#451=EDGE_CURVE('NONE',#573,#572,#64,.F.);
#452=EDGE_CURVE('',#574,#534,#666,.T.);
#453=EDGE_CURVE('NONE',#574,#573,#667,.F.);
#454=EDGE_CURVE('',#575,#533,#668,.T.);
#455=EDGE_CURVE('NONE',#575,#574,#669,.F.);
#456=EDGE_CURVE('',#576,#532,#670,.T.);
#457=EDGE_CURVE('NONE',#576,#575,#65,.F.);
#458=EDGE_CURVE('',#577,#531,#671,.T.);
#459=EDGE_CURVE('NONE',#577,#576,#672,.T.);
#460=EDGE_CURVE('',#578,#530,#673,.T.);
#461=EDGE_CURVE('NONE',#578,#577,#674,.F.);
#462=EDGE_CURVE('',#579,#529,#675,.T.);
#463=EDGE_CURVE('NONE',#579,#578,#66,.F.);
#464=EDGE_CURVE('',#580,#527,#676,.T.);
#465=EDGE_CURVE('NONE',#580,#579,#677,.T.);
#466=EDGE_CURVE('NONE',#569,#580,#678,.T.);
#467=EDGE_CURVE('',#581,#581,#67,.T.);
#468=EDGE_CURVE('',#582,#582,#68,.T.);
#469=EDGE_CURVE('',#583,#583,#69,.T.);
#470=EDGE_CURVE('',#584,#584,#70,.T.);
#471=EDGE_CURVE('',#512,#585,#679,.T.);
#472=EDGE_CURVE('NONE',#586,#585,#680,.T.);
#473=EDGE_CURVE('',#513,#586,#681,.T.);
#474=EDGE_CURVE('',#511,#587,#682,.T.);
#475=EDGE_CURVE('NONE',#585,#587,#683,.T.);
#476=EDGE_CURVE('',#522,#588,#684,.T.);
#477=EDGE_CURVE('NONE',#587,#588,#71,.F.);
#478=EDGE_CURVE('',#521,#589,#685,.T.);
#479=EDGE_CURVE('NONE',#588,#589,#686,.F.);
#480=EDGE_CURVE('',#520,#590,#687,.T.);
#481=EDGE_CURVE('NONE',#589,#590,#688,.T.);
#482=EDGE_CURVE('',#519,#591,#689,.T.);
#483=EDGE_CURVE('NONE',#590,#591,#72,.F.);
#484=EDGE_CURVE('',#518,#592,#690,.T.);
#485=EDGE_CURVE('NONE',#591,#592,#691,.F.);
#486=EDGE_CURVE('',#517,#593,#692,.T.);
#487=EDGE_CURVE('NONE',#592,#593,#693,.F.);
#488=EDGE_CURVE('',#516,#594,#694,.T.);
#489=EDGE_CURVE('NONE',#593,#594,#73,.F.);
#490=EDGE_CURVE('',#515,#595,#695,.T.);
#491=EDGE_CURVE('NONE',#594,#595,#696,.T.);
#492=EDGE_CURVE('',#514,#596,#697,.T.);
#493=EDGE_CURVE('NONE',#595,#596,#698,.F.);
#494=EDGE_CURVE('NONE',#597,#597,#74,.F.);
#495=EDGE_CURVE('',#598,#598,#75,.F.);
#496=EDGE_CURVE('NONE',#599,#599,#76,.F.);
#497=EDGE_CURVE('',#600,#600,#77,.F.);
#498=EDGE_CURVE('NONE',#601,#601,#78,.F.);
#499=EDGE_CURVE('',#602,#602,#79,.F.);
#500=EDGE_CURVE('NONE',#603,#603,#80,.F.);
#501=EDGE_CURVE('',#604,#604,#81,.F.);
#502=EDGE_CURVE('NONE',#596,#586,#82,.F.);
#503=EDGE_CURVE('',#605,#605,#83,.F.);
#504=EDGE_CURVE('',#606,#606,#84,.F.);
#505=EDGE_CURVE('',#607,#607,#85,.F.);
#506=EDGE_CURVE('',#608,#608,#86,.F.);
#507=VERTEX_POINT('',#1547);
#508=VERTEX_POINT('',#1548);
#509=VERTEX_POINT('',#1550);
#510=VERTEX_POINT('',#1552);
#511=VERTEX_POINT('',#1555);
#512=VERTEX_POINT('',#1556);
#513=VERTEX_POINT('',#1558);
#514=VERTEX_POINT('',#1560);
#515=VERTEX_POINT('',#1562);
#516=VERTEX_POINT('',#1564);
#517=VERTEX_POINT('',#1566);
#518=VERTEX_POINT('',#1568);
#519=VERTEX_POINT('',#1570);
#520=VERTEX_POINT('',#1572);
#521=VERTEX_POINT('',#1574);
#522=VERTEX_POINT('',#1576);
#523=VERTEX_POINT('',#1580);
#524=VERTEX_POINT('',#1581);
#525=VERTEX_POINT('',#1583);
#526=VERTEX_POINT('',#1585);
#527=VERTEX_POINT('',#1588);
#528=VERTEX_POINT('',#1589);
#529=VERTEX_POINT('',#1591);
#530=VERTEX_POINT('',#1593);
#531=VERTEX_POINT('',#1595);
#532=VERTEX_POINT('',#1597);
#533=VERTEX_POINT('',#1599);
#534=VERTEX_POINT('',#1601);
#535=VERTEX_POINT('',#1603);
#536=VERTEX_POINT('',#1605);
#537=VERTEX_POINT('',#1607);
#538=VERTEX_POINT('',#1609);
#539=VERTEX_POINT('',#1613);
#540=VERTEX_POINT('',#1614);
#541=VERTEX_POINT('',#1616);
#542=VERTEX_POINT('',#1618);
#543=VERTEX_POINT('',#1620);
#544=VERTEX_POINT('',#1623);
#545=VERTEX_POINT('',#1624);
#546=VERTEX_POINT('',#1626);
#547=VERTEX_POINT('',#1628);
#548=VERTEX_POINT('',#1630);
#549=VERTEX_POINT('',#1634);
#550=VERTEX_POINT('',#1636);
#551=VERTEX_POINT('',#1637);
#552=VERTEX_POINT('',#1642);
#553=VERTEX_POINT('',#1646);
#554=VERTEX_POINT('',#1650);
#555=VERTEX_POINT('',#1657);
#556=VERTEX_POINT('',#1659);
#557=VERTEX_POINT('',#1660);
#558=VERTEX_POINT('',#1665);
#559=VERTEX_POINT('',#1669);
#560=VERTEX_POINT('',#1673);
#561=VERTEX_POINT('',#1688);
#562=VERTEX_POINT('',#1690);
#563=VERTEX_POINT('',#1693);
#564=VERTEX_POINT('',#1695);
#565=VERTEX_POINT('',#1698);
#566=VERTEX_POINT('',#1700);
#567=VERTEX_POINT('',#1703);
#568=VERTEX_POINT('',#1705);
#569=VERTEX_POINT('',#1708);
#570=VERTEX_POINT('',#1710);
#571=VERTEX_POINT('',#1714);
#572=VERTEX_POINT('',#1718);
#573=VERTEX_POINT('',#1722);
#574=VERTEX_POINT('',#1726);
#575=VERTEX_POINT('',#1730);
#576=VERTEX_POINT('',#1734);
#577=VERTEX_POINT('',#1738);
#578=VERTEX_POINT('',#1742);
#579=VERTEX_POINT('',#1746);
#580=VERTEX_POINT('',#1750);
#581=VERTEX_POINT('',#1756);
#582=VERTEX_POINT('',#1758);
#583=VERTEX_POINT('',#1760);
#584=VERTEX_POINT('',#1762);
#585=VERTEX_POINT('',#1769);
#586=VERTEX_POINT('',#1771);
#587=VERTEX_POINT('',#1775);
#588=VERTEX_POINT('',#1779);
#589=VERTEX_POINT('',#1783);
#590=VERTEX_POINT('',#1787);
#591=VERTEX_POINT('',#1791);
#592=VERTEX_POINT('',#1795);
#593=VERTEX_POINT('',#1799);
#594=VERTEX_POINT('',#1803);
#595=VERTEX_POINT('',#1807);
#596=VERTEX_POINT('',#1811);
#597=VERTEX_POINT('',#1815);
#598=VERTEX_POINT('',#1817);
#599=VERTEX_POINT('',#1820);
#600=VERTEX_POINT('',#1822);
#601=VERTEX_POINT('',#1825);
#602=VERTEX_POINT('',#1827);
#603=VERTEX_POINT('',#1830);
#604=VERTEX_POINT('',#1832);
#605=VERTEX_POINT('',#1837);
#606=VERTEX_POINT('',#1839);
#607=VERTEX_POINT('',#1841);
#608=VERTEX_POINT('',#1843);
#609=LINE('',#1546,#699);
#610=LINE('',#1549,#700);
#611=LINE('',#1551,#701);
#612=LINE('',#1553,#702);
#613=LINE('',#1554,#703);
#614=LINE('',#1557,#704);
#615=LINE('',#1561,#705);
#616=LINE('',#1563,#706);
#617=LINE('',#1567,#707);
#618=LINE('',#1569,#708);
#619=LINE('',#1573,#709);
#620=LINE('',#1575,#710);
#621=LINE('',#1579,#711);
#622=LINE('',#1582,#712);
#623=LINE('',#1584,#713);
#624=LINE('',#1586,#714);
#625=LINE('',#1587,#715);
#626=LINE('',#1590,#716);
#627=LINE('',#1594,#717);
#628=LINE('',#1596,#718);
#629=LINE('',#1600,#719);
#630=LINE('',#1602,#720);
#631=LINE('',#1606,#721);
#632=LINE('',#1608,#722);
#633=LINE('',#1612,#723);
#634=LINE('',#1615,#724);
#635=LINE('',#1621,#725);
#636=LINE('',#1622,#726);
#637=LINE('',#1625,#727);
#638=LINE('',#1627,#728);
#639=LINE('',#1635,#729);
#640=LINE('',#1638,#730);
#641=LINE('',#1639,#731);
#642=LINE('',#1641,#732);
#643=LINE('',#1643,#733);
#644=LINE('',#1647,#734);
#645=LINE('',#1651,#735);
#646=LINE('',#1653,#736);
#647=LINE('',#1658,#737);
#648=LINE('',#1661,#738);
#649=LINE('',#1662,#739);
#650=LINE('',#1664,#740);
#651=LINE('',#1666,#741);
#652=LINE('',#1670,#742);
#653=LINE('',#1674,#743);
#654=LINE('',#1676,#744);
#655=LINE('',#1678,#745);
#656=LINE('',#1679,#746);
#657=LINE('',#1682,#747);
#658=LINE('',#1684,#748);
#659=LINE('',#1707,#749);
#660=LINE('',#1709,#750);
#661=LINE('',#1713,#751);
#662=LINE('',#1715,#752);
#663=LINE('',#1717,#753);
#664=LINE('',#1719,#754);
#665=LINE('',#1721,#755);
#666=LINE('',#1725,#756);
#667=LINE('',#1727,#757);
#668=LINE('',#1729,#758);
#669=LINE('',#1731,#759);
#670=LINE('',#1733,#760);
#671=LINE('',#1737,#761);
#672=LINE('',#1739,#762);
#673=LINE('',#1741,#763);
#674=LINE('',#1743,#764);
#675=LINE('',#1745,#765);
#676=LINE('',#1749,#766);
#677=LINE('',#1751,#767);
#678=LINE('',#1753,#768);
#679=LINE('',#1768,#769);
#680=LINE('',#1770,#770);
#681=LINE('',#1772,#771);
#682=LINE('',#1774,#772);
#683=LINE('',#1776,#773);
#684=LINE('',#1778,#774);
#685=LINE('',#1782,#775);
#686=LINE('',#1784,#776);
#687=LINE('',#1786,#777);
#688=LINE('',#1788,#778);
#689=LINE('',#1790,#779);
#690=LINE('',#1794,#780);
#691=LINE('',#1796,#781);
#692=LINE('',#1798,#782);
#693=LINE('',#1800,#783);
#694=LINE('',#1802,#784);
#695=LINE('',#1806,#785);
#696=LINE('',#1808,#786);
#697=LINE('',#1810,#787);
#698=LINE('',#1812,#788);
#699=VECTOR('',#1226,1.);
#700=VECTOR('',#1227,1.);
#701=VECTOR('',#1228,1.);
#702=VECTOR('',#1229,1.);
#703=VECTOR('',#1230,1.);
#704=VECTOR('',#1231,1.);
#705=VECTOR('',#1234,1.);
#706=VECTOR('',#1235,1.);
#707=VECTOR('',#1238,1.);
#708=VECTOR('',#1239,1.);
#709=VECTOR('',#1242,1.);
#710=VECTOR('',#1243,1.);
#711=VECTOR('',#1248,1.);
#712=VECTOR('',#1249,1.);
#713=VECTOR('',#1250,1.);
#714=VECTOR('',#1251,1.);
#715=VECTOR('',#1252,1.);
#716=VECTOR('',#1253,1.);
#717=VECTOR('',#1256,1.);
#718=VECTOR('',#1257,1.);
#719=VECTOR('',#1260,1.);
#720=VECTOR('',#1261,1.);
#721=VECTOR('',#1264,1.);
#722=VECTOR('',#1265,1.);
#723=VECTOR('',#1270,1.);
#724=VECTOR('',#1271,1.);
#725=VECTOR('',#1276,1.);
#726=VECTOR('',#1277,1.);
#727=VECTOR('',#1278,1.);
#728=VECTOR('',#1279,1.);
#729=VECTOR('',#1288,1.);
#730=VECTOR('',#1289,1.);
#731=VECTOR('',#1290,1.);
#732=VECTOR('',#1293,1.);
#733=VECTOR('',#1294,1.);
#734=VECTOR('',#1299,1.);
#735=VECTOR('',#1304,1.);
#736=VECTOR('',#1307,1.);
#737=VECTOR('',#1314,1.);
#738=VECTOR('',#1315,1.);
#739=VECTOR('',#1316,1.);
#740=VECTOR('',#1319,1.);
#741=VECTOR('',#1320,1.);
#742=VECTOR('',#1325,1.);
#743=VECTOR('',#1330,1.);
#744=VECTOR('',#1333,1.);
#745=VECTOR('',#1336,1.);
#746=VECTOR('',#1337,1.);
#747=VECTOR('',#1342,1.);
#748=VECTOR('',#1345,1.);
#749=VECTOR('',#1374,1.);
#750=VECTOR('',#1375,1.);
#751=VECTOR('',#1380,1.);
#752=VECTOR('',#1381,1.);
#753=VECTOR('',#1384,1.);
#754=VECTOR('',#1385,1.);
#755=VECTOR('',#1388,1.);
#756=VECTOR('',#1393,1.);
#757=VECTOR('',#1394,1.);
#758=VECTOR('',#1397,1.);
#759=VECTOR('',#1398,1.);
#760=VECTOR('',#1401,1.);
#761=VECTOR('',#1406,1.);
#762=VECTOR('',#1407,1.);
#763=VECTOR('',#1410,1.);
#764=VECTOR('',#1411,1.);
#765=VECTOR('',#1414,1.);
#766=VECTOR('',#1419,1.);
#767=VECTOR('',#1420,1.);
#768=VECTOR('',#1423,1.);
#769=VECTOR('',#1444,1.);
#770=VECTOR('',#1445,1.);
#771=VECTOR('',#1446,1.);
#772=VECTOR('',#1449,1.);
#773=VECTOR('',#1450,1.);
#774=VECTOR('',#1453,1.);
#775=VECTOR('',#1458,1.);
#776=VECTOR('',#1459,1.);
#777=VECTOR('',#1462,1.);
#778=VECTOR('',#1463,1.);
#779=VECTOR('',#1466,1.);
#780=VECTOR('',#1471,1.);
#781=VECTOR('',#1472,1.);
#782=VECTOR('',#1475,1.);
#783=VECTOR('',#1476,1.);
#784=VECTOR('',#1479,1.);
#785=VECTOR('',#1484,1.);
#786=VECTOR('',#1485,1.);
#787=VECTOR('',#1488,1.);
#788=VECTOR('',#1489,1.);
#789=EDGE_LOOP('',(#87,#88,#89,#90));
#790=EDGE_LOOP('',(#91,#92,#93,#94,#95,#96,#97,#98,#99,#100,#101,#102));
#791=EDGE_LOOP('',(#103,#104,#105,#106));
#792=EDGE_LOOP('',(#107,#108,#109,#110,#111,#112,#113,#114,#115,#116,#117,
#118));
#793=EDGE_LOOP('',(#119,#120,#121,#122,#123));
#794=EDGE_LOOP('',(#124,#125,#126,#127,#128));
#795=EDGE_LOOP('',(#129));
#796=EDGE_LOOP('',(#130,#131,#132,#133));
#797=EDGE_LOOP('',(#134,#135,#136,#137));
#798=EDGE_LOOP('',(#138,#139,#140,#141));
#799=EDGE_LOOP('',(#142,#143,#144,#145));
#800=EDGE_LOOP('',(#146,#147,#148,#149));
#801=EDGE_LOOP('',(#150,#151,#152,#153,#154));
#802=EDGE_LOOP('',(#155));
#803=EDGE_LOOP('',(#156,#157,#158,#159));
#804=EDGE_LOOP('',(#160,#161,#162,#163));
#805=EDGE_LOOP('',(#164,#165,#166,#167));
#806=EDGE_LOOP('',(#168,#169,#170,#171));
#807=EDGE_LOOP('',(#172,#173,#174,#175));
#808=EDGE_LOOP('',(#176,#177,#178,#179));
#809=EDGE_LOOP('',(#180,#181,#182,#183,#184));
#810=EDGE_LOOP('',(#185));
#811=EDGE_LOOP('',(#186));
#812=EDGE_LOOP('',(#187,#188,#189,#190));
#813=EDGE_LOOP('',(#191,#192,#193,#194));
#814=EDGE_LOOP('',(#195,#196,#197,#198));
#815=EDGE_LOOP('',(#199));
#816=EDGE_LOOP('',(#200));
#817=EDGE_LOOP('',(#201));
#818=EDGE_LOOP('',(#202));
#819=EDGE_LOOP('',(#203));
#820=EDGE_LOOP('',(#204));
#821=EDGE_LOOP('',(#205));
#822=EDGE_LOOP('',(#206));
#823=EDGE_LOOP('',(#207,#208,#209,#210));
#824=EDGE_LOOP('',(#211,#212,#213,#214));
#825=EDGE_LOOP('',(#215,#216,#217,#218));
#826=EDGE_LOOP('',(#219,#220,#221,#222));
#827=EDGE_LOOP('',(#223,#224,#225,#226));
#828=EDGE_LOOP('',(#227,#228,#229,#230));
#829=EDGE_LOOP('',(#231,#232,#233,#234));
#830=EDGE_LOOP('',(#235,#236,#237,#238));
#831=EDGE_LOOP('',(#239,#240,#241,#242));
#832=EDGE_LOOP('',(#243,#244,#245,#246));
#833=EDGE_LOOP('',(#247,#248,#249,#250));
#834=EDGE_LOOP('',(#251,#252,#253,#254));
#835=EDGE_LOOP('',(#255));
#836=EDGE_LOOP('',(#256));
#837=EDGE_LOOP('',(#257));
#838=EDGE_LOOP('',(#258));
#839=EDGE_LOOP('',(#259,#260,#261,#262,#263,#264,#265,#266,#267,#268,#269,
#270));
#840=EDGE_LOOP('',(#271));
#841=EDGE_LOOP('',(#272));
#842=EDGE_LOOP('',(#273));
#843=EDGE_LOOP('',(#274));
#844=EDGE_LOOP('',(#275));
#845=EDGE_LOOP('',(#276));
#846=EDGE_LOOP('',(#277));
#847=EDGE_LOOP('',(#278));
#848=EDGE_LOOP('',(#279,#280,#281,#282));
#849=EDGE_LOOP('',(#283,#284,#285,#286));
#850=EDGE_LOOP('',(#287,#288,#289,#290));
#851=EDGE_LOOP('',(#291,#292,#293,#294));
#852=EDGE_LOOP('',(#295,#296,#297,#298));
#853=EDGE_LOOP('',(#299,#300,#301,#302));
#854=EDGE_LOOP('',(#303,#304,#305,#306));
#855=EDGE_LOOP('',(#307,#308,#309,#310));
#856=EDGE_LOOP('',(#311,#312,#313,#314));
#857=EDGE_LOOP('',(#315,#316,#317,#318));
#858=EDGE_LOOP('',(#319,#320,#321,#322));
#859=EDGE_LOOP('',(#323));
#860=EDGE_LOOP('',(#324));
#861=EDGE_LOOP('',(#325));
#862=EDGE_LOOP('',(#326));
#863=EDGE_LOOP('',(#327));
#864=EDGE_LOOP('',(#328));
#865=EDGE_LOOP('',(#329));
#866=EDGE_LOOP('',(#330));
#867=EDGE_LOOP('',(#331,#332,#333,#334));
#868=EDGE_LOOP('',(#335));
#869=EDGE_LOOP('',(#336));
#870=EDGE_LOOP('',(#337));
#871=EDGE_LOOP('',(#338));
#872=EDGE_LOOP('',(#339,#340,#341,#342,#343,#344,#345,#346,#347,#348,#349,
#350));
#873=EDGE_LOOP('',(#351));
#874=EDGE_LOOP('',(#352));
#875=EDGE_LOOP('',(#353));
#876=EDGE_LOOP('',(#354));
#877=EDGE_LOOP('',(#355));
#878=EDGE_LOOP('',(#356));
#879=EDGE_LOOP('',(#357));
#880=EDGE_LOOP('',(#358));
#881=EDGE_LOOP('',(#359));
#882=EDGE_LOOP('',(#360));
#883=EDGE_LOOP('',(#361));
#884=EDGE_LOOP('',(#362));
#885=EDGE_LOOP('',(#363));
#886=EDGE_LOOP('',(#364));
#887=EDGE_LOOP('',(#365));
#888=EDGE_LOOP('',(#366));
#889=FACE_BOUND('',#789,.T.);
#890=FACE_BOUND('',#790,.T.);
#891=FACE_BOUND('',#791,.T.);
#892=FACE_BOUND('',#792,.T.);
#893=FACE_BOUND('',#793,.T.);
#894=FACE_BOUND('',#794,.T.);
#895=FACE_BOUND('',#795,.T.);
#896=FACE_BOUND('',#796,.T.);
#897=FACE_BOUND('',#797,.T.);
#898=FACE_BOUND('',#798,.T.);
#899=FACE_BOUND('',#799,.T.);
#900=FACE_BOUND('',#800,.T.);
#901=FACE_BOUND('',#801,.T.);
#902=FACE_BOUND('',#802,.T.);
#903=FACE_BOUND('',#803,.T.);
#904=FACE_BOUND('',#804,.T.);
#905=FACE_BOUND('',#805,.T.);
#906=FACE_BOUND('',#806,.T.);
#907=FACE_BOUND('',#807,.T.);
#908=FACE_BOUND('',#808,.T.);
#909=FACE_BOUND('',#809,.T.);
#910=FACE_BOUND('',#810,.T.);
#911=FACE_BOUND('',#811,.T.);
#912=FACE_BOUND('',#812,.T.);
#913=FACE_BOUND('',#813,.T.);
#914=FACE_BOUND('',#814,.T.);
#915=FACE_BOUND('',#815,.T.);
#916=FACE_BOUND('',#816,.T.);
#917=FACE_BOUND('',#817,.T.);
#918=FACE_BOUND('',#818,.T.);
#919=FACE_BOUND('',#819,.T.);
#920=FACE_BOUND('',#820,.T.);
#921=FACE_BOUND('',#821,.T.);
#922=FACE_BOUND('',#822,.T.);
#923=FACE_BOUND('',#823,.T.);
#924=FACE_BOUND('',#824,.T.);
#925=FACE_BOUND('',#825,.T.);
#926=FACE_BOUND('',#826,.T.);
#927=FACE_BOUND('',#827,.T.);
#928=FACE_BOUND('',#828,.T.);
#929=FACE_BOUND('',#829,.T.);
#930=FACE_BOUND('',#830,.T.);
#931=FACE_BOUND('',#831,.T.);
#932=FACE_BOUND('',#832,.T.);
#933=FACE_BOUND('',#833,.T.);
#934=FACE_BOUND('',#834,.T.);
#935=FACE_BOUND('',#835,.T.);
#936=FACE_BOUND('',#836,.T.);
#937=FACE_BOUND('',#837,.T.);
#938=FACE_BOUND('',#838,.T.);
#939=FACE_BOUND('',#839,.T.);
#940=FACE_BOUND('',#840,.T.);
#941=FACE_BOUND('',#841,.T.);
#942=FACE_BOUND('',#842,.T.);
#943=FACE_BOUND('',#843,.T.);
#944=FACE_BOUND('',#844,.T.);
#945=FACE_BOUND('',#845,.T.);
#946=FACE_BOUND('',#846,.T.);
#947=FACE_BOUND('',#847,.T.);
#948=FACE_BOUND('',#848,.T.);
#949=FACE_BOUND('',#849,.T.);
#950=FACE_BOUND('',#850,.T.);
#951=FACE_BOUND('',#851,.T.);
#952=FACE_BOUND('',#852,.T.);
#953=FACE_BOUND('',#853,.T.);
#954=FACE_BOUND('',#854,.T.);
#955=FACE_BOUND('',#855,.T.);
#956=FACE_BOUND('',#856,.T.);
#957=FACE_BOUND('',#857,.T.);
#958=FACE_BOUND('',#858,.T.);
#959=FACE_BOUND('',#859,.T.);
#960=FACE_BOUND('',#860,.T.);
#961=FACE_BOUND('',#861,.T.);
#962=FACE_BOUND('',#862,.T.);
#963=FACE_BOUND('',#863,.T.);
#964=FACE_BOUND('',#864,.T.);
#965=FACE_BOUND('',#865,.T.);
#966=FACE_BOUND('',#866,.T.);
#967=FACE_BOUND('',#867,.T.);
#968=FACE_BOUND('',#868,.T.);
#969=FACE_BOUND('',#869,.T.);
#970=FACE_BOUND('',#870,.T.);
#971=FACE_BOUND('',#871,.T.);
#972=FACE_BOUND('',#872,.T.);
#973=FACE_BOUND('',#873,.T.);
#974=FACE_BOUND('',#874,.T.);
#975=FACE_BOUND('',#875,.T.);
#976=FACE_BOUND('',#876,.T.);
#977=FACE_BOUND('',#877,.T.);
#978=FACE_BOUND('',#878,.T.);
#979=FACE_BOUND('',#879,.T.);
#980=FACE_BOUND('',#880,.T.);
#981=FACE_BOUND('',#881,.T.);
#982=FACE_BOUND('',#882,.T.);
#983=FACE_BOUND('',#883,.T.);
#984=FACE_BOUND('',#884,.T.);
#985=FACE_BOUND('',#885,.T.);
#986=FACE_BOUND('',#886,.T.);
#987=FACE_BOUND('',#887,.T.);
#988=FACE_BOUND('',#888,.T.);
#989=PLANE('',#1107);
#990=PLANE('',#1112);
#991=PLANE('',#1117);
#992=PLANE('',#1122);
#993=PLANE('',#1124);
#994=PLANE('',#1129);
#995=PLANE('',#1130);
#996=PLANE('',#1131);
#997=PLANE('',#1133);
#998=PLANE('',#1138);
#999=PLANE('',#1139);
#1000=PLANE('',#1141);
#1001=PLANE('',#1142);
#1002=PLANE('',#1143);
#1003=PLANE('',#1158);
#1004=PLANE('',#1159);
#1005=PLANE('',#1162);
#1006=PLANE('',#1163);
#1007=PLANE('',#1166);
#1008=PLANE('',#1167);
#1009=PLANE('',#1170);
#1010=PLANE('',#1171);
#1011=PLANE('',#1172);
#1012=PLANE('',#1177);
#1013=PLANE('',#1178);
#1014=PLANE('',#1179);
#1015=PLANE('',#1180);
#1016=PLANE('',#1181);
#1017=PLANE('',#1182);
#1018=PLANE('',#1185);
#1019=PLANE('',#1186);
#1020=PLANE('',#1189);
#1021=PLANE('',#1190);
#1022=PLANE('',#1193);
#1023=PLANE('',#1194);
#1024=PLANE('',#1209);
#1025=PLANE('',#1214);
#1026=PLANE('',#1215);
#1027=PLANE('',#1216);
#1028=PLANE('',#1217);
#1029=ADVANCED_FACE('',(#889,#890),#989,.F.);
#1030=ADVANCED_FACE('',(#891,#892),#990,.T.);
#1031=ADVANCED_FACE('',(#893,#894),#991,.T.);
#1032=ADVANCED_FACE('',(#895,#896),#992,.T.);
#1033=ADVANCED_FACE('',(#897),#993,.F.);
#1034=ADVANCED_FACE('',(#898),#12,.T.);
#1035=ADVANCED_FACE('',(#899),#13,.T.);
#1036=ADVANCED_FACE('',(#900),#994,.T.);
#1037=ADVANCED_FACE('',(#901),#995,.F.);
#1038=ADVANCED_FACE('',(#902,#903),#996,.F.);
#1039=ADVANCED_FACE('',(#904),#997,.T.);
#1040=ADVANCED_FACE('',(#905),#14,.F.);
#1041=ADVANCED_FACE('',(#906),#15,.F.);
#1042=ADVANCED_FACE('',(#907),#998,.F.);
#1043=ADVANCED_FACE('',(#908,#909),#999,.T.);
#1044=ADVANCED_FACE('',(#910,#911),#16,.F.);
#1045=ADVANCED_FACE('',(#912),#1000,.T.);
#1046=ADVANCED_FACE('',(#913),#1001,.F.);
#1047=ADVANCED_FACE('',(#914),#1002,.T.);
#1048=ADVANCED_FACE('',(#915,#916),#17,.F.);
#1049=ADVANCED_FACE('',(#917,#918),#18,.F.);
#1050=ADVANCED_FACE('',(#919,#920),#19,.F.);
#1051=ADVANCED_FACE('',(#921,#922),#20,.F.);
#1052=ADVANCED_FACE('',(#923),#21,.T.);
#1053=ADVANCED_FACE('',(#924),#1003,.T.);
#1054=ADVANCED_FACE('',(#925),#1004,.T.);
#1055=ADVANCED_FACE('',(#926),#22,.T.);
#1056=ADVANCED_FACE('',(#927),#1005,.T.);
#1057=ADVANCED_FACE('',(#928),#1006,.T.);
#1058=ADVANCED_FACE('',(#929),#23,.T.);
#1059=ADVANCED_FACE('',(#930),#1007,.T.);
#1060=ADVANCED_FACE('',(#931),#1008,.T.);
#1061=ADVANCED_FACE('',(#932),#24,.T.);
#1062=ADVANCED_FACE('',(#933),#1009,.T.);
#1063=ADVANCED_FACE('',(#934),#1010,.T.);
#1064=ADVANCED_FACE('NONE',(#935,#936,#937,#938,#939,#940,#941,#942,#943),
#1011,.T.);
#1065=ADVANCED_FACE('',(#944),#1012,.T.);
#1066=ADVANCED_FACE('',(#945),#1013,.T.);
#1067=ADVANCED_FACE('',(#946),#1014,.T.);
#1068=ADVANCED_FACE('',(#947),#1015,.T.);
#1069=ADVANCED_FACE('',(#948),#1016,.T.);
#1070=ADVANCED_FACE('',(#949),#1017,.T.);
#1071=ADVANCED_FACE('',(#950),#25,.T.);
#1072=ADVANCED_FACE('',(#951),#1018,.T.);
#1073=ADVANCED_FACE('',(#952),#1019,.T.);
#1074=ADVANCED_FACE('',(#953),#26,.T.);
#1075=ADVANCED_FACE('',(#954),#1020,.T.);
#1076=ADVANCED_FACE('',(#955),#1021,.T.);
#1077=ADVANCED_FACE('',(#956),#27,.T.);
#1078=ADVANCED_FACE('',(#957),#1022,.T.);
#1079=ADVANCED_FACE('',(#958),#1023,.T.);
#1080=ADVANCED_FACE('',(#959,#960),#28,.F.);
#1081=ADVANCED_FACE('',(#961,#962),#29,.F.);
#1082=ADVANCED_FACE('',(#963,#964),#30,.F.);
#1083=ADVANCED_FACE('',(#965,#966),#31,.F.);
#1084=ADVANCED_FACE('',(#967),#32,.T.);
#1085=ADVANCED_FACE('NONE',(#968,#969,#970,#971,#972,#973,#974,#975,#976),
#1024,.F.);
#1086=ADVANCED_FACE('',(#977),#1025,.F.);
#1087=ADVANCED_FACE('',(#978),#1026,.F.);
#1088=ADVANCED_FACE('',(#979),#1027,.F.);
#1089=ADVANCED_FACE('',(#980),#1028,.F.);
#1090=ADVANCED_FACE('',(#981,#982),#33,.F.);
#1091=ADVANCED_FACE('',(#983,#984),#34,.F.);
#1092=ADVANCED_FACE('',(#985,#986),#35,.F.);
#1093=ADVANCED_FACE('',(#987,#988),#36,.F.);
#1094=CLOSED_SHELL('',(#1029,#1030,#1031,#1032,#1033,#1034,#1035,#1036,
#1037,#1038,#1039,#1040,#1041,#1042,#1043,#1044,#1045,#1046,#1047,#1048,
#1049,#1050,#1051,#1052,#1053,#1054,#1055,#1056,#1057,#1058,#1059,#1060,
#1061,#1062,#1063,#1064,#1065,#1066,#1067,#1068,#1069,#1070,#1071,#1072,
#1073,#1074,#1075,#1076,#1077,#1078,#1079,#1080,#1081,#1082,#1083,#1084,
#1085,#1086,#1087,#1088,#1089,#1090,#1091,#1092,#1093));
#1095=STYLED_ITEM('',(#1096),#1103);
#1096=PRESENTATION_STYLE_ASSIGNMENT((#1097));
#1097=SURFACE_STYLE_USAGE(.BOTH.,#1098);
#1098=SURFACE_SIDE_STYLE('',(#1099));
#1099=SURFACE_STYLE_FILL_AREA(#1100);
#1100=FILL_AREA_STYLE('',(#1101));
#1101=FILL_AREA_STYLE_COLOUR('',#1102);
#1102=COLOUR_RGB('',0.615686274509804,0.811764705882353,0.929411764705882);
#1103=MANIFOLD_SOLID_BREP('Part 1',#1094);
#1104=SHAPE_DEFINITION_REPRESENTATION(#1858,#1105);
#1105=SHAPE_REPRESENTATION('Part 1',(#1106),#1853);
#1106=AXIS2_PLACEMENT_3D('',#1544,#1222,#1223);
#1107=AXIS2_PLACEMENT_3D('',#1545,#1224,#1225);
#1108=AXIS2_PLACEMENT_3D('',#1559,#1232,#1233);
#1109=AXIS2_PLACEMENT_3D('',#1565,#1236,#1237);
#1110=AXIS2_PLACEMENT_3D('',#1571,#1240,#1241);
#1111=AXIS2_PLACEMENT_3D('',#1577,#1244,#1245);
#1112=AXIS2_PLACEMENT_3D('',#1578,#1246,#1247);
#1113=AXIS2_PLACEMENT_3D('',#1592,#1254,#1255);
#1114=AXIS2_PLACEMENT_3D('',#1598,#1258,#1259);
#1115=AXIS2_PLACEMENT_3D('',#1604,#1262,#1263);
#1116=AXIS2_PLACEMENT_3D('',#1610,#1266,#1267);
#1117=AXIS2_PLACEMENT_3D('',#1611,#1268,#1269);
#1118=AXIS2_PLACEMENT_3D('',#1617,#1272,#1273);
#1119=AXIS2_PLACEMENT_3D('',#1619,#1274,#1275);
#1120=AXIS2_PLACEMENT_3D('',#1629,#1280,#1281);
#1121=AXIS2_PLACEMENT_3D('',#1631,#1282,#1283);
#1122=AXIS2_PLACEMENT_3D('',#1632,#1284,#1285);
#1123=AXIS2_PLACEMENT_3D('',#1633,#1286,#1287);
#1124=AXIS2_PLACEMENT_3D('',#1640,#1291,#1292);
#1125=AXIS2_PLACEMENT_3D('',#1644,#1295,#1296);
#1126=AXIS2_PLACEMENT_3D('',#1645,#1297,#1298);
#1127=AXIS2_PLACEMENT_3D('',#1648,#1300,#1301);
#1128=AXIS2_PLACEMENT_3D('',#1649,#1302,#1303);
#1129=AXIS2_PLACEMENT_3D('',#1652,#1305,#1306);
#1130=AXIS2_PLACEMENT_3D('',#1654,#1308,#1309);
#1131=AXIS2_PLACEMENT_3D('',#1655,#1310,#1311);
#1132=AXIS2_PLACEMENT_3D('',#1656,#1312,#1313);
#1133=AXIS2_PLACEMENT_3D('',#1663,#1317,#1318);
#1134=AXIS2_PLACEMENT_3D('',#1667,#1321,#1322);
#1135=AXIS2_PLACEMENT_3D('',#1668,#1323,#1324);
#1136=AXIS2_PLACEMENT_3D('',#1671,#1326,#1327);
#1137=AXIS2_PLACEMENT_3D('',#1672,#1328,#1329);
#1138=AXIS2_PLACEMENT_3D('',#1675,#1331,#1332);
#1139=AXIS2_PLACEMENT_3D('',#1677,#1334,#1335);
#1140=AXIS2_PLACEMENT_3D('',#1680,#1338,#1339);
#1141=AXIS2_PLACEMENT_3D('',#1681,#1340,#1341);
#1142=AXIS2_PLACEMENT_3D('',#1683,#1343,#1344);
#1143=AXIS2_PLACEMENT_3D('',#1685,#1346,#1347);
#1144=AXIS2_PLACEMENT_3D('',#1686,#1348,#1349);
#1145=AXIS2_PLACEMENT_3D('',#1687,#1350,#1351);
#1146=AXIS2_PLACEMENT_3D('',#1689,#1352,#1353);
#1147=AXIS2_PLACEMENT_3D('',#1691,#1354,#1355);
#1148=AXIS2_PLACEMENT_3D('',#1692,#1356,#1357);
#1149=AXIS2_PLACEMENT_3D('',#1694,#1358,#1359);
#1150=AXIS2_PLACEMENT_3D('',#1696,#1360,#1361);
#1151=AXIS2_PLACEMENT_3D('',#1697,#1362,#1363);
#1152=AXIS2_PLACEMENT_3D('',#1699,#1364,#1365);
#1153=AXIS2_PLACEMENT_3D('',#1701,#1366,#1367);
#1154=AXIS2_PLACEMENT_3D('',#1702,#1368,#1369);
#1155=AXIS2_PLACEMENT_3D('',#1704,#1370,#1371);
#1156=AXIS2_PLACEMENT_3D('',#1706,#1372,#1373);
#1157=AXIS2_PLACEMENT_3D('',#1711,#1376,#1377);
#1158=AXIS2_PLACEMENT_3D('',#1712,#1378,#1379);
#1159=AXIS2_PLACEMENT_3D('',#1716,#1382,#1383);
#1160=AXIS2_PLACEMENT_3D('',#1720,#1386,#1387);
#1161=AXIS2_PLACEMENT_3D('',#1723,#1389,#1390);
#1162=AXIS2_PLACEMENT_3D('',#1724,#1391,#1392);
#1163=AXIS2_PLACEMENT_3D('',#1728,#1395,#1396);
#1164=AXIS2_PLACEMENT_3D('',#1732,#1399,#1400);
#1165=AXIS2_PLACEMENT_3D('',#1735,#1402,#1403);
#1166=AXIS2_PLACEMENT_3D('',#1736,#1404,#1405);
#1167=AXIS2_PLACEMENT_3D('',#1740,#1408,#1409);
#1168=AXIS2_PLACEMENT_3D('',#1744,#1412,#1413);
#1169=AXIS2_PLACEMENT_3D('',#1747,#1415,#1416);
#1170=AXIS2_PLACEMENT_3D('',#1748,#1417,#1418);
#1171=AXIS2_PLACEMENT_3D('',#1752,#1421,#1422);
#1172=AXIS2_PLACEMENT_3D('',#1754,#1424,#1425);
#1173=AXIS2_PLACEMENT_3D('',#1755,#1426,#1427);
#1174=AXIS2_PLACEMENT_3D('',#1757,#1428,#1429);
#1175=AXIS2_PLACEMENT_3D('',#1759,#1430,#1431);
#1176=AXIS2_PLACEMENT_3D('',#1761,#1432,#1433);
#1177=AXIS2_PLACEMENT_3D('',#1763,#1434,#1435);
#1178=AXIS2_PLACEMENT_3D('',#1764,#1436,#1437);
#1179=AXIS2_PLACEMENT_3D('',#1765,#1438,#1439);
#1180=AXIS2_PLACEMENT_3D('',#1766,#1440,#1441);
#1181=AXIS2_PLACEMENT_3D('',#1767,#1442,#1443);
#1182=AXIS2_PLACEMENT_3D('',#1773,#1447,#1448);
#1183=AXIS2_PLACEMENT_3D('',#1777,#1451,#1452);
#1184=AXIS2_PLACEMENT_3D('',#1780,#1454,#1455);
#1185=AXIS2_PLACEMENT_3D('',#1781,#1456,#1457);
#1186=AXIS2_PLACEMENT_3D('',#1785,#1460,#1461);
#1187=AXIS2_PLACEMENT_3D('',#1789,#1464,#1465);
#1188=AXIS2_PLACEMENT_3D('',#1792,#1467,#1468);
#1189=AXIS2_PLACEMENT_3D('',#1793,#1469,#1470);
#1190=AXIS2_PLACEMENT_3D('',#1797,#1473,#1474);
#1191=AXIS2_PLACEMENT_3D('',#1801,#1477,#1478);
#1192=AXIS2_PLACEMENT_3D('',#1804,#1480,#1481);
#1193=AXIS2_PLACEMENT_3D('',#1805,#1482,#1483);
#1194=AXIS2_PLACEMENT_3D('',#1809,#1486,#1487);
#1195=AXIS2_PLACEMENT_3D('',#1813,#1490,#1491);
#1196=AXIS2_PLACEMENT_3D('',#1814,#1492,#1493);
#1197=AXIS2_PLACEMENT_3D('',#1816,#1494,#1495);
#1198=AXIS2_PLACEMENT_3D('',#1818,#1496,#1497);
#1199=AXIS2_PLACEMENT_3D('',#1819,#1498,#1499);
#1200=AXIS2_PLACEMENT_3D('',#1821,#1500,#1501);
#1201=AXIS2_PLACEMENT_3D('',#1823,#1502,#1503);
#1202=AXIS2_PLACEMENT_3D('',#1824,#1504,#1505);
#1203=AXIS2_PLACEMENT_3D('',#1826,#1506,#1507);
#1204=AXIS2_PLACEMENT_3D('',#1828,#1508,#1509);
#1205=AXIS2_PLACEMENT_3D('',#1829,#1510,#1511);
#1206=AXIS2_PLACEMENT_3D('',#1831,#1512,#1513);
#1207=AXIS2_PLACEMENT_3D('',#1833,#1514,#1515);
#1208=AXIS2_PLACEMENT_3D('',#1834,#1516,#1517);
#1209=AXIS2_PLACEMENT_3D('',#1835,#1518,#1519);
#1210=AXIS2_PLACEMENT_3D('',#1836,#1520,#1521);
#1211=AXIS2_PLACEMENT_3D('',#1838,#1522,#1523);
#1212=AXIS2_PLACEMENT_3D('',#1840,#1524,#1525);
#1213=AXIS2_PLACEMENT_3D('',#1842,#1526,#1527);
#1214=AXIS2_PLACEMENT_3D('',#1844,#1528,#1529);
#1215=AXIS2_PLACEMENT_3D('',#1845,#1530,#1531);
#1216=AXIS2_PLACEMENT_3D('',#1846,#1532,#1533);
#1217=AXIS2_PLACEMENT_3D('',#1847,#1534,#1535);
#1218=AXIS2_PLACEMENT_3D('',#1848,#1536,#1537);
#1219=AXIS2_PLACEMENT_3D('',#1849,#1538,#1539);
#1220=AXIS2_PLACEMENT_3D('',#1850,#1540,#1541);
#1221=AXIS2_PLACEMENT_3D('',#1851,#1542,#1543);
#1222=DIRECTION('',(0.,0.,1.));
#1223=DIRECTION('',(1.,0.,0.));
#1224=DIRECTION('',(-3.1540426835942E-16,1.,0.));
#1225=DIRECTION('',(-1.,-3.1540426835942E-16,0.));
#1226=DIRECTION('',(1.,3.1540426835942E-16,0.));
#1227=DIRECTION('',(0.,0.,-1.));
#1228=DIRECTION('',(1.,3.1540426835942E-16,0.));
#1229=DIRECTION('',(0.,0.,-1.));
#1230=DIRECTION('',(0.20522004133536,6.4727276990069E-17,0.978715860009591));
#1231=DIRECTION('',(-0.978715860009591,-3.08691159758085E-16,0.20522004133536));
#1232=DIRECTION('',(-3.1540426835942E-16,1.,0.));
#1233=DIRECTION('',(-1.,-3.1540426835942E-16,0.));
#1234=DIRECTION('',(0.978715860009591,3.08691159758085E-16,-0.20522004133536));
#1235=DIRECTION('',(0.20522004133536,6.4727276990069E-17,0.978715860009591));
#1236=DIRECTION('',(-3.1540426835942E-16,1.,0.));
#1237=DIRECTION('',(-1.,-3.1540426835942E-16,0.));
#1238=DIRECTION('',(-0.20522004133536,-6.4727276990069E-17,-0.978715860009591));
#1239=DIRECTION('',(0.978715860009591,3.08691159758085E-16,-0.20522004133536));
#1240=DIRECTION('',(-3.1540426835942E-16,1.,0.));
#1241=DIRECTION('',(-1.,-3.1540426835942E-16,0.));
#1242=DIRECTION('',(-0.978715860009591,-3.08691159758085E-16,0.20522004133536));
#1243=DIRECTION('',(-0.20522004133536,-6.4727276990069E-17,-0.978715860009591));
#1244=DIRECTION('',(-3.1540426835942E-16,1.,0.));
#1245=DIRECTION('',(-1.,-3.1540426835942E-16,0.));
#1246=DIRECTION('',(-3.1540426835942E-16,1.,0.));
#1247=DIRECTION('',(-1.,-3.1540426835942E-16,0.));
#1248=DIRECTION('',(1.,3.1540426835942E-16,0.));
#1249=DIRECTION('',(0.,0.,-1.));
#1250=DIRECTION('',(1.,3.1540426835942E-16,0.));
#1251=DIRECTION('',(0.,0.,-1.));
#1252=DIRECTION('',(-0.978715860009591,-3.08691159758085E-16,0.20522004133536));
#1253=DIRECTION('',(0.20522004133536,6.4727276990069E-17,0.978715860009591));
#1254=DIRECTION('',(-3.1540426835942E-16,1.,0.));
#1255=DIRECTION('',(-1.,-3.1540426835942E-16,0.));
#1256=DIRECTION('',(-0.20522004133536,-6.4727276990069E-17,-0.978715860009591));
#1257=DIRECTION('',(-0.978715860009591,-3.08691159758085E-16,0.20522004133536));
#1258=DIRECTION('',(-3.1540426835942E-16,1.,0.));
#1259=DIRECTION('',(-1.,-3.1540426835942E-16,0.));
#1260=DIRECTION('',(0.978715860009591,3.08691159758085E-16,-0.20522004133536));
#1261=DIRECTION('',(-0.20522004133536,-6.4727276990069E-17,-0.978715860009591));
#1262=DIRECTION('',(-3.1540426835942E-16,1.,0.));
#1263=DIRECTION('',(-1.,-3.1540426835942E-16,0.));
#1264=DIRECTION('',(0.20522004133536,6.4727276990069E-17,0.978715860009591));
#1265=DIRECTION('',(0.978715860009591,3.08691159758085E-16,-0.20522004133536));
#1266=DIRECTION('',(-3.1540426835942E-16,1.,0.));
#1267=DIRECTION('',(-1.,-3.1540426835942E-16,0.));
#1268=DIRECTION('',(0.,0.,1.));
#1269=DIRECTION('',(1.,0.,0.));
#1270=DIRECTION('',(-1.,-1.82123199577617E-16,0.));
#1271=DIRECTION('',(-1.82123199577617E-16,1.,0.));
#1272=DIRECTION('',(0.,0.,1.));
#1273=DIRECTION('',(1.,0.,0.));
#1274=DIRECTION('',(0.,0.,1.));
#1275=DIRECTION('',(1.,0.,0.));
#1276=DIRECTION('',(-1.82123199577617E-16,1.,0.));
#1277=DIRECTION('',(-1.82123199577617E-16,1.,0.));
#1278=DIRECTION('',(-1.,-1.82123199577617E-16,0.));
#1279=DIRECTION('',(-1.82123199577617E-16,1.,0.));
#1280=DIRECTION('',(0.,0.,1.));
#1281=DIRECTION('',(1.,0.,0.));
#1282=DIRECTION('',(0.,0.,1.));
#1283=DIRECTION('',(1.,0.,0.));
#1284=DIRECTION('',(1.82123199577617E-16,-1.,0.));
#1285=DIRECTION('',(1.,1.82123199577617E-16,0.));
#1286=DIRECTION('',(1.82123199577617E-16,-1.,0.));
#1287=DIRECTION('',(1.,1.82123199577617E-16,0.));
#1288=DIRECTION('',(-1.,-1.82123199577617E-16,0.));
#1289=DIRECTION('',(0.,0.,-1.));
#1290=DIRECTION('',(0.,0.,-1.));
#1291=DIRECTION('',(-1.,-1.82123199577617E-16,0.));
#1292=DIRECTION('',(1.82123199577617E-16,-1.,0.));
#1293=DIRECTION('',(-1.82123199577617E-16,1.,0.));
#1294=DIRECTION('',(0.,0.,-1.));
#1295=DIRECTION('',(0.,0.,-1.));
#1296=DIRECTION('',(-1.,0.,0.));
#1297=DIRECTION('',(0.,0.,1.));
#1298=DIRECTION('',(1.,0.,0.));
#1299=DIRECTION('',(0.,0.,-1.));
#1300=DIRECTION('',(0.,0.,-1.));
#1301=DIRECTION('',(-1.,0.,0.));
#1302=DIRECTION('',(0.,0.,1.));
#1303=DIRECTION('',(1.,0.,0.));
#1304=DIRECTION('',(0.,0.,-1.));
#1305=DIRECTION('',(-1.,-1.82123199577617E-16,0.));
#1306=DIRECTION('',(1.82123199577617E-16,-1.,0.));
#1307=DIRECTION('',(-1.82123199577617E-16,1.,0.));
#1308=DIRECTION('',(0.,0.,1.));
#1309=DIRECTION('',(1.,0.,0.));
#1310=DIRECTION('',(1.82123199577617E-16,-1.,0.));
#1311=DIRECTION('',(1.,1.82123199577617E-16,0.));
#1312=DIRECTION('',(1.82123199577617E-16,-1.,0.));
#1313=DIRECTION('',(1.,1.82123199577617E-16,0.));
#1314=DIRECTION('',(-1.,-1.82123199577617E-16,0.));
#1315=DIRECTION('',(0.,0.,-1.));
#1316=DIRECTION('',(0.,0.,-1.));
#1317=DIRECTION('',(-1.,-1.82123199577617E-16,0.));
#1318=DIRECTION('',(1.82123199577617E-16,-1.,0.));
#1319=DIRECTION('',(-1.82123199577617E-16,1.,0.));
#1320=DIRECTION('',(0.,0.,-1.));
#1321=DIRECTION('',(0.,0.,-1.));
#1322=DIRECTION('',(-1.,0.,0.));
#1323=DIRECTION('',(0.,0.,1.));
#1324=DIRECTION('',(1.,0.,0.));
#1325=DIRECTION('',(0.,0.,-1.));
#1326=DIRECTION('',(0.,0.,-1.));
#1327=DIRECTION('',(-1.,0.,0.));
#1328=DIRECTION('',(0.,0.,1.));
#1329=DIRECTION('',(1.,0.,0.));
#1330=DIRECTION('',(0.,0.,1.));
#1331=DIRECTION('',(-1.,-1.82123199577617E-16,0.));
#1332=DIRECTION('',(1.82123199577617E-16,-1.,0.));
#1333=DIRECTION('',(-1.82123199577617E-16,1.,0.));
#1334=DIRECTION('',(0.,0.,1.));
#1335=DIRECTION('',(1.,0.,0.));
#1336=DIRECTION('',(0.,1.,0.));
#1337=DIRECTION('',(0.,1.,0.));
#1338=DIRECTION('',(1.82123199577617E-16,-1.,0.));
#1339=DIRECTION('',(1.,1.82123199577617E-16,0.));
#1340=DIRECTION('',(-1.,0.,0.));
#1341=DIRECTION('',(0.,0.,1.));
#1342=DIRECTION('',(0.,1.,0.));
#1343=DIRECTION('',(-1.,0.,0.));
#1344=DIRECTION('',(0.,0.,1.));
#1345=DIRECTION('',(0.,1.,0.));
#1346=DIRECTION('',(0.,0.,1.));
#1347=DIRECTION('',(1.,0.,0.));
#1348=DIRECTION('',(0.,-1.,0.));
#1349=DIRECTION('',(0.,0.,-1.));
#1350=DIRECTION('',(-3.1540426835942E-16,1.,0.));
#1351=DIRECTION('',(-1.,-3.1540426835942E-16,0.));
#1352=DIRECTION('',(0.,-1.,0.));
#1353=DIRECTION('',(0.,0.,-1.));
#1354=DIRECTION('',(0.,-1.,0.));
#1355=DIRECTION('',(0.,0.,-1.));
#1356=DIRECTION('',(-3.1540426835942E-16,1.,0.));
#1357=DIRECTION('',(-1.,-3.1540426835942E-16,0.));
#1358=DIRECTION('',(0.,-1.,0.));
#1359=DIRECTION('',(0.,0.,-1.));
#1360=DIRECTION('',(0.,-1.,0.));
#1361=DIRECTION('',(0.,0.,-1.));
#1362=DIRECTION('',(-3.1540426835942E-16,1.,0.));
#1363=DIRECTION('',(-1.,-3.1540426835942E-16,0.));
#1364=DIRECTION('',(0.,-1.,0.));
#1365=DIRECTION('',(0.,0.,-1.));
#1366=DIRECTION('',(0.,-1.,0.));
#1367=DIRECTION('',(0.,0.,-1.));
#1368=DIRECTION('',(-3.1540426835942E-16,1.,0.));
#1369=DIRECTION('',(-1.,-3.1540426835942E-16,0.));
#1370=DIRECTION('',(0.,-1.,0.));
#1371=DIRECTION('',(0.,0.,-1.));
#1372=DIRECTION('',(0.,-1.,0.));
#1373=DIRECTION('',(0.,0.,-1.));
#1374=DIRECTION('',(0.,-1.,0.));
#1375=DIRECTION('',(0.,-1.,0.));
#1376=DIRECTION('',(0.,1.,0.));
#1377=DIRECTION('',(0.,0.,1.));
#1378=DIRECTION('',(0.20522004133536,0.,0.978715860009591));
#1379=DIRECTION('',(0.978715860009591,0.,-0.20522004133536));
#1380=DIRECTION('',(0.,-1.,0.));
#1381=DIRECTION('',(0.978715860009591,0.,-0.20522004133536));
#1382=DIRECTION('',(-0.978715860009591,0.,0.20522004133536));
#1383=DIRECTION('',(0.20522004133536,0.,0.978715860009591));
#1384=DIRECTION('',(0.,-1.,0.));
#1385=DIRECTION('',(-0.20522004133536,0.,-0.978715860009591));
#1386=DIRECTION('',(0.,-1.,0.));
#1387=DIRECTION('',(0.,0.,-1.));
#1388=DIRECTION('',(0.,-1.,0.));
#1389=DIRECTION('',(0.,1.,0.));
#1390=DIRECTION('',(0.,0.,1.));
#1391=DIRECTION('',(0.978715860009591,0.,-0.20522004133536));
#1392=DIRECTION('',(-0.20522004133536,0.,-0.978715860009591));
#1393=DIRECTION('',(0.,-1.,0.));
#1394=DIRECTION('',(-0.20522004133536,0.,-0.978715860009591));
#1395=DIRECTION('',(0.20522004133536,0.,0.978715860009591));
#1396=DIRECTION('',(0.978715860009591,0.,-0.20522004133536));
#1397=DIRECTION('',(0.,-1.,0.));
#1398=DIRECTION('',(0.978715860009591,0.,-0.20522004133536));
#1399=DIRECTION('',(0.,-1.,0.));
#1400=DIRECTION('',(0.,0.,-1.));
#1401=DIRECTION('',(0.,-1.,0.));
#1402=DIRECTION('',(0.,1.,0.));
#1403=DIRECTION('',(0.,0.,1.));
#1404=DIRECTION('',(-0.20522004133536,0.,-0.978715860009591));
#1405=DIRECTION('',(-0.978715860009591,0.,0.20522004133536));
#1406=DIRECTION('',(0.,-1.,0.));
#1407=DIRECTION('',(0.978715860009591,0.,-0.20522004133536));
#1408=DIRECTION('',(0.978715860009591,0.,-0.20522004133536));
#1409=DIRECTION('',(-0.20522004133536,0.,-0.978715860009591));
#1410=DIRECTION('',(0.,-1.,0.));
#1411=DIRECTION('',(-0.20522004133536,0.,-0.978715860009591));
#1412=DIRECTION('',(0.,-1.,0.));
#1413=DIRECTION('',(0.,0.,-1.));
#1414=DIRECTION('',(0.,-1.,0.));
#1415=DIRECTION('',(0.,1.,0.));
#1416=DIRECTION('',(0.,0.,1.));
#1417=DIRECTION('',(-0.978715860009591,0.,0.20522004133536));
#1418=DIRECTION('',(0.20522004133536,0.,0.978715860009591));
#1419=DIRECTION('',(0.,-1.,0.));
#1420=DIRECTION('',(-0.20522004133536,0.,-0.978715860009591));
#1421=DIRECTION('',(-0.20522004133536,0.,-0.978715860009591));
#1422=DIRECTION('',(-0.978715860009591,0.,0.20522004133536));
#1423=DIRECTION('',(0.978715860009591,0.,-0.20522004133536));
#1424=DIRECTION('',(0.,1.,0.));
#1425=DIRECTION('',(0.978715860009591,0.,-0.20522004133536));
#1426=DIRECTION('',(3.1540426835942E-16,-1.,0.));
#1427=DIRECTION('',(1.,3.1540426835942E-16,0.));
#1428=DIRECTION('',(3.1540426835942E-16,-1.,0.));
#1429=DIRECTION('',(1.,3.1540426835942E-16,0.));
#1430=DIRECTION('',(3.1540426835942E-16,-1.,0.));
#1431=DIRECTION('',(1.,3.1540426835942E-16,0.));
#1432=DIRECTION('',(3.1540426835942E-16,-1.,0.));
#1433=DIRECTION('',(1.,3.1540426835942E-16,0.));
#1434=DIRECTION('',(-3.1540426835942E-16,1.,0.));
#1435=DIRECTION('',(-1.,-3.1540426835942E-16,0.));
#1436=DIRECTION('',(-3.1540426835942E-16,1.,0.));
#1437=DIRECTION('',(-1.,-3.1540426835942E-16,0.));
#1438=DIRECTION('',(-3.1540426835942E-16,1.,0.));
#1439=DIRECTION('',(-1.,-3.1540426835942E-16,0.));
#1440=DIRECTION('',(-3.1540426835942E-16,1.,0.));
#1441=DIRECTION('',(-1.,-3.1540426835942E-16,0.));
#1442=DIRECTION('',(-0.20522004133536,0.,-0.978715860009591));
#1443=DIRECTION('',(-0.978715860009591,0.,0.20522004133536));
#1444=DIRECTION('',(0.,-1.,0.));
#1445=DIRECTION('',(0.978715860009591,0.,-0.20522004133536));
#1446=DIRECTION('',(0.,-1.,0.));
#1447=DIRECTION('',(-0.978715860009591,0.,0.20522004133536));
#1448=DIRECTION('',(0.20522004133536,0.,0.978715860009591));
#1449=DIRECTION('',(0.,-1.,0.));
#1450=DIRECTION('',(-0.20522004133536,0.,-0.978715860009591));
#1451=DIRECTION('',(0.,-1.,0.));
#1452=DIRECTION('',(0.,0.,-1.));
#1453=DIRECTION('',(0.,-1.,0.));
#1454=DIRECTION('',(0.,1.,0.));
#1455=DIRECTION('',(0.,0.,1.));
#1456=DIRECTION('',(0.978715860009591,0.,-0.20522004133536));
#1457=DIRECTION('',(-0.20522004133536,0.,-0.978715860009591));
#1458=DIRECTION('',(0.,-1.,0.));
#1459=DIRECTION('',(-0.20522004133536,0.,-0.978715860009591));
#1460=DIRECTION('',(-0.20522004133536,0.,-0.978715860009591));
#1461=DIRECTION('',(-0.978715860009591,0.,0.20522004133536));
#1462=DIRECTION('',(0.,-1.,0.));
#1463=DIRECTION('',(0.978715860009591,0.,-0.20522004133536));
#1464=DIRECTION('',(0.,-1.,0.));
#1465=DIRECTION('',(0.,0.,-1.));
#1466=DIRECTION('',(0.,-1.,0.));
#1467=DIRECTION('',(0.,1.,0.));
#1468=DIRECTION('',(0.,0.,1.));
#1469=DIRECTION('',(0.20522004133536,0.,0.978715860009591));
#1470=DIRECTION('',(0.978715860009591,0.,-0.20522004133536));
#1471=DIRECTION('',(0.,-1.,0.));
#1472=DIRECTION('',(0.978715860009591,0.,-0.20522004133536));
#1473=DIRECTION('',(0.978715860009591,0.,-0.20522004133536));
#1474=DIRECTION('',(-0.20522004133536,0.,-0.978715860009591));
#1475=DIRECTION('',(0.,-1.,0.));
#1476=DIRECTION('',(-0.20522004133536,0.,-0.978715860009591));
#1477=DIRECTION('',(0.,-1.,0.));
#1478=DIRECTION('',(0.,0.,-1.));
#1479=DIRECTION('',(0.,-1.,0.));
#1480=DIRECTION('',(0.,1.,0.));
#1481=DIRECTION('',(0.,0.,1.));
#1482=DIRECTION('',(-0.978715860009591,0.,0.20522004133536));
#1483=DIRECTION('',(0.20522004133536,0.,0.978715860009591));
#1484=DIRECTION('',(0.,-1.,0.));
#1485=DIRECTION('',(-0.20522004133536,0.,-0.978715860009591));
#1486=DIRECTION('',(0.20522004133536,0.,0.978715860009591));
#1487=DIRECTION('',(0.978715860009591,0.,-0.20522004133536));
#1488=DIRECTION('',(0.,-1.,0.));
#1489=DIRECTION('',(0.978715860009591,0.,-0.20522004133536));
#1490=DIRECTION('',(0.,-1.,0.));
#1491=DIRECTION('',(0.,0.,-1.));
#1492=DIRECTION('',(0.,-1.,0.));
#1493=DIRECTION('',(0.,0.,-1.));
#1494=DIRECTION('',(-3.1540426835942E-16,1.,0.));
#1495=DIRECTION('',(-1.,-3.1540426835942E-16,0.));
#1496=DIRECTION('',(0.,-1.,0.));
#1497=DIRECTION('',(0.,0.,-1.));
#1498=DIRECTION('',(0.,-1.,0.));
#1499=DIRECTION('',(0.,0.,-1.));
#1500=DIRECTION('',(-3.1540426835942E-16,1.,0.));
#1501=DIRECTION('',(-1.,-3.1540426835942E-16,0.));
#1502=DIRECTION('',(0.,-1.,0.));
#1503=DIRECTION('',(0.,0.,-1.));
#1504=DIRECTION('',(0.,-1.,0.));
#1505=DIRECTION('',(0.,0.,-1.));
#1506=DIRECTION('',(-3.1540426835942E-16,1.,0.));
#1507=DIRECTION('',(-1.,-3.1540426835942E-16,0.));
#1508=DIRECTION('',(0.,-1.,0.));
#1509=DIRECTION('',(0.,0.,-1.));
#1510=DIRECTION('',(0.,-1.,0.));
#1511=DIRECTION('',(0.,0.,-1.));
#1512=DIRECTION('',(-3.1540426835942E-16,1.,0.));
#1513=DIRECTION('',(-1.,-3.1540426835942E-16,0.));
#1514=DIRECTION('',(0.,-1.,0.));
#1515=DIRECTION('',(0.,0.,-1.));
#1516=DIRECTION('',(0.,1.,0.));
#1517=DIRECTION('',(0.,0.,1.));
#1518=DIRECTION('',(0.,1.,0.));
#1519=DIRECTION('',(0.978715860009591,0.,-0.20522004133536));
#1520=DIRECTION('',(0.,1.,0.));
#1521=DIRECTION('',(0.,0.,1.));
#1522=DIRECTION('',(0.,1.,0.));
#1523=DIRECTION('',(0.,0.,1.));
#1524=DIRECTION('',(0.,1.,0.));
#1525=DIRECTION('',(0.,0.,1.));
#1526=DIRECTION('',(0.,1.,0.));
#1527=DIRECTION('',(0.,0.,1.));
#1528=DIRECTION('',(-3.1540426835942E-16,1.,0.));
#1529=DIRECTION('',(-1.,-3.1540426835942E-16,0.));
#1530=DIRECTION('',(-3.1540426835942E-16,1.,0.));
#1531=DIRECTION('',(-1.,-3.1540426835942E-16,0.));
#1532=DIRECTION('',(-3.1540426835942E-16,1.,0.));
#1533=DIRECTION('',(-1.,-3.1540426835942E-16,0.));
#1534=DIRECTION('',(-3.1540426835942E-16,1.,0.));
#1535=DIRECTION('',(-1.,-3.1540426835942E-16,0.));
#1536=DIRECTION('',(3.1540426835942E-16,-1.,0.));
#1537=DIRECTION('',(1.,3.1540426835942E-16,0.));
#1538=DIRECTION('',(3.1540426835942E-16,-1.,0.));
#1539=DIRECTION('',(1.,3.1540426835942E-16,0.));
#1540=DIRECTION('',(3.1540426835942E-16,-1.,0.));
#1541=DIRECTION('',(1.,3.1540426835942E-16,0.));
#1542=DIRECTION('',(3.1540426835942E-16,-1.,0.));
#1543=DIRECTION('',(1.,3.1540426835942E-16,0.));
#1544=CARTESIAN_POINT('',(0.,0.,0.));
#1545=CARTESIAN_POINT('',(-1.7347234759768E-17,-0.00866,0.04654));
#1546=CARTESIAN_POINT('',(-1.7347234759768E-17,-0.00866,0.00254));
#1547=CARTESIAN_POINT('',(-0.022,-0.00866,0.00254));
#1548=CARTESIAN_POINT('',(0.022,-0.00866,0.00254));
#1549=CARTESIAN_POINT('',(0.022,-0.00866,0.04654));
#1550=CARTESIAN_POINT('',(0.022,-0.00866,0.04654));
#1551=CARTESIAN_POINT('',(-1.7347234759768E-17,-0.00866,0.04654));
#1552=CARTESIAN_POINT('',(-0.022,-0.00866,0.04654));
#1553=CARTESIAN_POINT('',(-0.022,-0.00866,0.04654));
#1554=CARTESIAN_POINT('',(0.000649232803940835,-0.00866,0.0464038669420768));
#1555=CARTESIAN_POINT('',(-0.0069829114675687,-0.00866,0.0100053719617493));
#1556=CARTESIAN_POINT('',(-0.0043509644374427,-0.00866,0.0225574028663723));
#1557=CARTESIAN_POINT('',(-0.00500019724138355,-0.00866,0.0226935359242954));
#1558=CARTESIAN_POINT('',(-0.0169029953420657,-0.00866,0.0251893498964983));
#1559=CARTESIAN_POINT('',(-0.0161488116901582,-0.00866,0.0287861306820335));
#1560=CARTESIAN_POINT('',(-0.0153946280382508,-0.00866,0.0323829114675687));
#1561=CARTESIAN_POINT('',(-0.00349182993756866,-0.00866,0.0298870974953659));
#1562=CARTESIAN_POINT('',(-0.00284259713362775,-0.00866,0.0297509644374427));
#1563=CARTESIAN_POINT('',(0.000649232803940886,-0.00866,0.0464038669420768));
#1564=CARTESIAN_POINT('',(-0.000210650103501748,-0.00866,0.0423029953420657));
#1565=CARTESIAN_POINT('',(0.0033861306820335,-0.00866,0.0415488116901583));
#1566=CARTESIAN_POINT('',(0.0069829114675687,-0.00866,0.0407946280382508));
#1567=CARTESIAN_POINT('',(0.00784279437501133,-0.00866,0.0448954996382619));
#1568=CARTESIAN_POINT('',(0.0043509644374427,-0.00866,0.0282425971336278));
#1569=CARTESIAN_POINT('',(-0.00349182993756866,-0.00866,0.0298870974953659));
#1570=CARTESIAN_POINT('',(0.0169029953420657,-0.00866,0.0256106501035019));
#1571=CARTESIAN_POINT('',(0.0161488116901583,-0.00866,0.0220138693179666));
#1572=CARTESIAN_POINT('',(0.0153946280382508,-0.00866,0.0184170885324314));
#1573=CARTESIAN_POINT('',(-0.00500019724138355,-0.00866,0.0226935359242954));
#1574=CARTESIAN_POINT('',(0.00284259713362775,-0.00866,0.0210490355625573));
#1575=CARTESIAN_POINT('',(0.00784279437501129,-0.00866,0.0448954996382619));
#1576=CARTESIAN_POINT('',(0.000210650103501756,-0.00866,0.00849700465793436));
#1577=CARTESIAN_POINT('',(-0.0033861306820335,-0.00866,0.00925118830984181));
#1578=CARTESIAN_POINT('',(-1.7347234759768E-17,-0.00601661586121085,0.04654));
#1579=CARTESIAN_POINT('',(-1.7347234759768E-17,-0.00601661586121085,0.00254));
#1580=CARTESIAN_POINT('',(-0.022,-0.00601661586121086,0.00254));
#1581=CARTESIAN_POINT('',(0.022,-0.00601661586121085,0.00254));
#1582=CARTESIAN_POINT('',(-0.022,-0.00601661586121086,0.04654));
#1583=CARTESIAN_POINT('',(-0.022,-0.00601661586121086,0.04654));
#1584=CARTESIAN_POINT('',(-1.7347234759768E-17,-0.00601661586121085,0.04654));
#1585=CARTESIAN_POINT('',(0.022,-0.00601661586121084,0.04654));
#1586=CARTESIAN_POINT('',(0.022,-0.00601661586121084,0.04654));
#1587=CARTESIAN_POINT('',(-0.00500019724138355,-0.00601661586121085,0.0226935359242954));
#1588=CARTESIAN_POINT('',(-0.00435096443744269,-0.00601661586121085,0.0225574028663723));
#1589=CARTESIAN_POINT('',(-0.0169029953420657,-0.00601661586121086,0.0251893498964983));
#1590=CARTESIAN_POINT('',(0.000649232803940835,-0.00601661586121085,0.0464038669420768));
#1591=CARTESIAN_POINT('',(-0.00698291146756874,-0.00601661586121085,0.0100053719617493));
#1592=CARTESIAN_POINT('',(-0.0033861306820335,-0.00601661586121085,0.00925118830984181));
#1593=CARTESIAN_POINT('',(0.000210650103501762,-0.00601661586121085,0.00849700465793436));
#1594=CARTESIAN_POINT('',(0.00784279437501129,-0.00601661586121085,0.0448954996382619));
#1595=CARTESIAN_POINT('',(0.00284259713362775,-0.00601661586121085,0.0210490355625573));
#1596=CARTESIAN_POINT('',(-0.00500019724138355,-0.00601661586121085,0.0226935359242954));
#1597=CARTESIAN_POINT('',(0.0153946280382508,-0.00601661586121084,0.0184170885324314));
#1598=CARTESIAN_POINT('',(0.0161488116901583,-0.00601661586121084,0.0220138693179666));
#1599=CARTESIAN_POINT('',(0.0169029953420657,-0.00601661586121084,0.0256106501035019));
#1600=CARTESIAN_POINT('',(-0.00349182993756866,-0.00601661586121085,0.0298870974953659));
#1601=CARTESIAN_POINT('',(0.00435096443744269,-0.00601661586121085,0.0282425971336278));
#1602=CARTESIAN_POINT('',(0.00784279437501133,-0.00601661586121085,0.0448954996382619));
#1603=CARTESIAN_POINT('',(0.00698291146756874,-0.00601661586121085,0.0407946280382508));
#1604=CARTESIAN_POINT('',(0.0033861306820335,-0.00601661586121085,0.0415488116901583));
#1605=CARTESIAN_POINT('',(-0.000210650103501761,-0.00601661586121085,0.0423029953420657));
#1606=CARTESIAN_POINT('',(0.000649232803940886,-0.00601661586121085,0.0464038669420768));
#1607=CARTESIAN_POINT('',(-0.00284259713362775,-0.00601661586121085,0.0297509644374427));
#1608=CARTESIAN_POINT('',(-0.00349182993756866,-0.00601661586121085,0.0298870974953659));
#1609=CARTESIAN_POINT('',(-0.0153946280382508,-0.00601661586121086,0.0323829114675687));
#1610=CARTESIAN_POINT('',(-0.0161488116901582,-0.00601661586121086,0.0287861306820335));
#1611=CARTESIAN_POINT('',(0.,0.0659911357683742,0.0508));
#1612=CARTESIAN_POINT('',(0.,-0.0762,0.0508));
#1613=CARTESIAN_POINT('',(0.0762,-0.0762,0.0508));
#1614=CARTESIAN_POINT('',(-0.0762,-0.0762,0.0508));
#1615=CARTESIAN_POINT('',(0.0762,1.38777878078145E-17,0.0508));
#1616=CARTESIAN_POINT('',(0.0762,0.0762,0.0508));
#1617=CARTESIAN_POINT('',(-0.0762,0.0762,0.0508));
#1618=CARTESIAN_POINT('',(-1.66533453693773E-16,0.208182271536748,0.0508));
#1619=CARTESIAN_POINT('',(0.0762,0.0762,0.0508));
#1620=CARTESIAN_POINT('',(-0.0762,0.0762,0.0508));
#1621=CARTESIAN_POINT('',(-0.0762,-2.77555756156289E-17,0.0508));
#1622=CARTESIAN_POINT('',(0.07366,1.34151948808873E-17,0.0508));
#1623=CARTESIAN_POINT('',(0.07366,-0.07366,0.0508));
#1624=CARTESIAN_POINT('',(0.07366,0.0762,0.0508));
#1625=CARTESIAN_POINT('',(-4.62592926927148E-19,-0.07366,0.0508));
#1626=CARTESIAN_POINT('',(-0.07366,-0.07366,0.0508));
#1627=CARTESIAN_POINT('',(-0.07366,-2.72929826887017E-17,0.0508));
#1628=CARTESIAN_POINT('',(-0.07366,0.0762,0.0508));
#1629=CARTESIAN_POINT('',(0.0762,0.0762,0.0508));
#1630=CARTESIAN_POINT('',(-7.91450237203605E-17,0.205240999686147,0.0508));
#1631=CARTESIAN_POINT('',(-0.0762,0.0762,0.0508));
#1632=CARTESIAN_POINT('',(0.,-0.0762,0.0508));
#1633=CARTESIAN_POINT('',(1.38777878078145E-17,-0.0762,0.0254));
#1634=CARTESIAN_POINT('',(0.00444500000000001,-0.0762,0.0254));
#1635=CARTESIAN_POINT('',(0.,-0.0762,0.));
#1636=CARTESIAN_POINT('',(0.0762,-0.0762,0.));
#1637=CARTESIAN_POINT('',(-0.0762,-0.0762,0.));
#1638=CARTESIAN_POINT('',(0.0762,-0.0762,0.0508));
#1639=CARTESIAN_POINT('',(-0.0762,-0.0762,0.0508));
#1640=CARTESIAN_POINT('',(0.0762,1.38777878078145E-17,0.0508));
#1641=CARTESIAN_POINT('',(0.0762,1.38777878078145E-17,0.));
#1642=CARTESIAN_POINT('',(0.0762,0.0762,0.));
#1643=CARTESIAN_POINT('',(0.0762,0.0762,0.0508));
#1644=CARTESIAN_POINT('',(-0.0762,0.0762,0.0508));
#1645=CARTESIAN_POINT('',(-0.0762,0.0762,0.));
#1646=CARTESIAN_POINT('',(-1.66533453693773E-16,0.208182271536748,0.));
#1647=CARTESIAN_POINT('',(-1.66533453693773E-16,0.208182271536748,0.0508));
#1648=CARTESIAN_POINT('',(0.0762,0.0762,0.0508));
#1649=CARTESIAN_POINT('',(0.0762,0.0762,0.));
#1650=CARTESIAN_POINT('',(-0.0762,0.0762,0.));
#1651=CARTESIAN_POINT('',(-0.0762,0.0762,0.0508));
#1652=CARTESIAN_POINT('',(-0.0762,-2.77555756156289E-17,0.0508));
#1653=CARTESIAN_POINT('',(-0.0762,-2.77555756156289E-17,0.));
#1654=CARTESIAN_POINT('',(0.,0.0659911357683742,0.));
#1655=CARTESIAN_POINT('',(-4.62592926927148E-19,-0.07366,0.0508));
#1656=CARTESIAN_POINT('',(1.34151948808873E-17,-0.07366,0.0254));
#1657=CARTESIAN_POINT('',(0.00444500000000001,-0.07366,0.0254));
#1658=CARTESIAN_POINT('',(-4.62592926927148E-19,-0.07366,0.00254));
#1659=CARTESIAN_POINT('',(0.07366,-0.07366,0.00254));
#1660=CARTESIAN_POINT('',(-0.07366,-0.07366,0.00254));
#1661=CARTESIAN_POINT('',(-0.07366,-0.07366,0.0508));
#1662=CARTESIAN_POINT('',(0.07366,-0.07366,0.0508));
#1663=CARTESIAN_POINT('',(0.07366,1.34151948808873E-17,0.0508));
#1664=CARTESIAN_POINT('',(0.07366,1.34151948808873E-17,0.00254));
#1665=CARTESIAN_POINT('',(0.07366,0.0762,0.00254));
#1666=CARTESIAN_POINT('',(0.07366,0.0762,0.0508));
#1667=CARTESIAN_POINT('',(-0.0762,0.0762,0.0508));
#1668=CARTESIAN_POINT('',(-0.0762,0.0762,0.00254));
#1669=CARTESIAN_POINT('',(-7.91450237203605E-17,0.205240999686147,0.00254));
#1670=CARTESIAN_POINT('',(-7.91450237203605E-17,0.205240999686147,0.0508));
#1671=CARTESIAN_POINT('',(0.0762,0.0762,0.0508));
#1672=CARTESIAN_POINT('',(0.0762,0.0762,0.00254));
#1673=CARTESIAN_POINT('',(-0.07366,0.0762,0.00254));
#1674=CARTESIAN_POINT('',(-0.07366,0.0762,0.0508));
#1675=CARTESIAN_POINT('',(-0.07366,-2.72929826887017E-17,0.0508));
#1676=CARTESIAN_POINT('',(-0.07366,-2.72929826887017E-17,0.00254));
#1677=CARTESIAN_POINT('',(0.,0.0659911357683742,0.00254));
#1678=CARTESIAN_POINT('',(-0.022,-0.00733830793060544,0.00254));
#1679=CARTESIAN_POINT('',(0.022,-0.00733830793060543,0.00254));
#1680=CARTESIAN_POINT('',(1.17036010512569E-17,-0.064262,0.0254));
#1681=CARTESIAN_POINT('',(-0.022,-0.00733830793060544,0.04654));
#1682=CARTESIAN_POINT('',(-0.022,-0.00733830793060544,0.04654));
#1683=CARTESIAN_POINT('',(0.022,-0.00733830793060543,0.04654));
#1684=CARTESIAN_POINT('',(0.022,-0.00733830793060543,0.04654));
#1685=CARTESIAN_POINT('',(0.,0.0657904998430731,0.04654));
#1686=CARTESIAN_POINT('',(-0.0092978006700911,-0.0058,0.027349590392686));
#1687=CARTESIAN_POINT('',(-0.0092978006700911,-0.00601661586121085,0.027349590392686));
#1688=CARTESIAN_POINT('',(-0.0108603006700911,-0.00601661586121085,0.027349590392686));
#1689=CARTESIAN_POINT('',(-0.0092978006700911,-0.0058,0.027349590392686));
#1690=CARTESIAN_POINT('',(-0.0092978006700911,-0.0058,0.025787090392686));
#1691=CARTESIAN_POINT('',(0.00164176033068289,-0.0058,0.0332297268800768));
#1692=CARTESIAN_POINT('',(0.00164176033068289,-0.00601661586121085,0.0332297268800768));
#1693=CARTESIAN_POINT('',(7.92603306828947E-5,-0.00601661586121085,0.0332297268800768));
#1694=CARTESIAN_POINT('',(0.00164176033068289,-0.0058,0.0332297268800768));
#1695=CARTESIAN_POINT('',(0.00164176033068289,-0.0058,0.0316672268800768));
#1696=CARTESIAN_POINT('',(0.0092978006700911,-0.0058,0.0234504096073141));
#1697=CARTESIAN_POINT('',(0.0092978006700911,-0.00601661586121085,0.0234504096073141));
#1698=CARTESIAN_POINT('',(0.0077353006700911,-0.00601661586121085,0.0234504096073141));
#1699=CARTESIAN_POINT('',(0.0092978006700911,-0.0058,0.0234504096073141));
#1700=CARTESIAN_POINT('',(0.0092978006700911,-0.0058,0.0218879096073141));
#1701=CARTESIAN_POINT('',(-0.0016417603306829,-0.0058,0.0175702731199233));
#1702=CARTESIAN_POINT('',(-0.0016417603306829,-0.00601661586121085,0.0175702731199233));
#1703=CARTESIAN_POINT('',(-0.00320426033068291,-0.00601661586121085,0.0175702731199233));
#1704=CARTESIAN_POINT('',(-0.0016417603306829,-0.0058,0.0175702731199233));
#1705=CARTESIAN_POINT('',(-0.0016417603306829,-0.0058,0.0160077731199233));
#1706=CARTESIAN_POINT('',(-0.0161488116901582,-0.0058,0.0287861306820335));
#1707=CARTESIAN_POINT('',(-0.0169029953420657,-0.0058,0.0251893498964983));
#1708=CARTESIAN_POINT('',(-0.0169029953420657,-0.0058,0.0251893498964983));
#1709=CARTESIAN_POINT('',(-0.0153946280382508,-0.0058,0.0323829114675687));
#1710=CARTESIAN_POINT('',(-0.0153946280382508,-0.0058,0.0323829114675687));
#1711=CARTESIAN_POINT('',(-0.0161488116901582,-0.0058,0.0287861306820335));
#1712=CARTESIAN_POINT('',(0.0169029953420657,-0.0058,0.0256106501035019));
#1713=CARTESIAN_POINT('',(-0.00284259713362775,-0.0058,0.0297509644374427));
#1714=CARTESIAN_POINT('',(-0.00284259713362775,-0.0058,0.0297509644374427));
#1715=CARTESIAN_POINT('',(0.0169029953420657,-0.0058,0.0256106501035019));
#1716=CARTESIAN_POINT('',(-0.0035967807855352,-0.0058,0.0261541836519075));
#1717=CARTESIAN_POINT('',(-0.000210650103501748,-0.0058,0.0423029953420657));
#1718=CARTESIAN_POINT('',(-0.000210650103501748,-0.0058,0.0423029953420657));
#1719=CARTESIAN_POINT('',(-0.0035967807855352,-0.0058,0.0261541836519075));
#1720=CARTESIAN_POINT('',(0.0033861306820335,-0.0058,0.0415488116901583));
#1721=CARTESIAN_POINT('',(0.0069829114675687,-0.0058,0.0407946280382508));
#1722=CARTESIAN_POINT('',(0.0069829114675687,-0.0058,0.0407946280382508));
#1723=CARTESIAN_POINT('',(0.0033861306820335,-0.0058,0.0415488116901583));
#1724=CARTESIAN_POINT('',(0.00359678078553525,-0.0058,0.0246458163480926));
#1725=CARTESIAN_POINT('',(0.0043509644374427,-0.0058,0.0282425971336278));
#1726=CARTESIAN_POINT('',(0.0043509644374427,-0.0058,0.0282425971336278));
#1727=CARTESIAN_POINT('',(0.00359678078553525,-0.0058,0.0246458163480926));
#1728=CARTESIAN_POINT('',(0.0169029953420657,-0.0058,0.0256106501035019));
#1729=CARTESIAN_POINT('',(0.0169029953420657,-0.0058,0.0256106501035019));
#1730=CARTESIAN_POINT('',(0.0169029953420657,-0.0058,0.0256106501035019));
#1731=CARTESIAN_POINT('',(0.0169029953420657,-0.0058,0.0256106501035019));
#1732=CARTESIAN_POINT('',(0.0161488116901583,-0.0058,0.0220138693179666));
#1733=CARTESIAN_POINT('',(0.0153946280382508,-0.0058,0.0184170885324314));
#1734=CARTESIAN_POINT('',(0.0153946280382508,-0.0058,0.0184170885324314));
#1735=CARTESIAN_POINT('',(0.0161488116901583,-0.0058,0.0220138693179666));
#1736=CARTESIAN_POINT('',(0.0153946280382508,-0.0058,0.0184170885324314));
#1737=CARTESIAN_POINT('',(0.00284259713362775,-0.0058,0.0210490355625573));
#1738=CARTESIAN_POINT('',(0.00284259713362775,-0.0058,0.0210490355625573));
#1739=CARTESIAN_POINT('',(0.0153946280382508,-0.0058,0.0184170885324314));
#1740=CARTESIAN_POINT('',(0.0035967807855352,-0.0058,0.0246458163480926));
#1741=CARTESIAN_POINT('',(0.000210650103501756,-0.0058,0.00849700465793436));
#1742=CARTESIAN_POINT('',(0.000210650103501756,-0.0058,0.00849700465793436));
#1743=CARTESIAN_POINT('',(0.0035967807855352,-0.0058,0.0246458163480926));
#1744=CARTESIAN_POINT('',(-0.0033861306820335,-0.0058,0.00925118830984181));
#1745=CARTESIAN_POINT('',(-0.0069829114675687,-0.0058,0.0100053719617493));
#1746=CARTESIAN_POINT('',(-0.0069829114675687,-0.0058,0.0100053719617493));
#1747=CARTESIAN_POINT('',(-0.0033861306820335,-0.0058,0.00925118830984181));
#1748=CARTESIAN_POINT('',(-0.00359678078553525,-0.0058,0.0261541836519075));
#1749=CARTESIAN_POINT('',(-0.0043509644374427,-0.0058,0.0225574028663723));
#1750=CARTESIAN_POINT('',(-0.0043509644374427,-0.0058,0.0225574028663723));
#1751=CARTESIAN_POINT('',(-0.00359678078553525,-0.0058,0.0261541836519075));
#1752=CARTESIAN_POINT('',(0.0153946280382508,-0.0058,0.0184170885324314));
#1753=CARTESIAN_POINT('',(0.0153946280382508,-0.0058,0.0184170885324314));
#1754=CARTESIAN_POINT('',(0.0161488116901583,-0.0058,0.0220138693179666));
#1755=CARTESIAN_POINT('',(0.00335278242531651,-0.0058,0.0413897703629068));
#1756=CARTESIAN_POINT('',(0.0053527824253165,-0.0058,0.0413897703629068));
#1757=CARTESIAN_POINT('',(-0.0159897703629067,-0.0058,0.0287527824253165));
#1758=CARTESIAN_POINT('',(-0.0139897703629067,-0.0058,0.0287527824253165));
#1759=CARTESIAN_POINT('',(-0.00335278242531651,-0.0058,0.00941022963709337));
#1760=CARTESIAN_POINT('',(-0.0013527824253165,-0.0058,0.00941022963709337));
#1761=CARTESIAN_POINT('',(0.0159897703629067,-0.0058,0.0220472175746836));
#1762=CARTESIAN_POINT('',(0.0179897703629067,-0.0058,0.0220472175746836));
#1763=CARTESIAN_POINT('',(-1.7347234759768E-17,-0.00601661586121085,0.04654));
#1764=CARTESIAN_POINT('',(-1.7347234759768E-17,-0.00601661586121085,0.04654));
#1765=CARTESIAN_POINT('',(-1.7347234759768E-17,-0.00601661586121085,0.04654));
#1766=CARTESIAN_POINT('',(-1.7347234759768E-17,-0.00601661586121085,0.04654));
#1767=CARTESIAN_POINT('',(0.0153946280382508,-0.0058,0.0184170885324314));
#1768=CARTESIAN_POINT('',(-0.0043509644374427,-0.0058,0.0225574028663723));
#1769=CARTESIAN_POINT('',(-0.0043509644374427,-0.0127,0.0225574028663723));
#1770=CARTESIAN_POINT('',(0.0153946280382508,-0.0127,0.0184170885324314));
#1771=CARTESIAN_POINT('',(-0.0169029953420657,-0.0127,0.0251893498964983));
#1772=CARTESIAN_POINT('',(-0.0169029953420657,-0.0058,0.0251893498964983));
#1773=CARTESIAN_POINT('',(-0.00359678078553525,-0.0058,0.0261541836519075));
#1774=CARTESIAN_POINT('',(-0.0069829114675687,-0.0058,0.0100053719617493));
#1775=CARTESIAN_POINT('',(-0.0069829114675687,-0.0127,0.0100053719617493));
#1776=CARTESIAN_POINT('',(-0.00359678078553525,-0.0127,0.0261541836519075));
#1777=CARTESIAN_POINT('',(-0.0033861306820335,-0.0058,0.00925118830984181));
#1778=CARTESIAN_POINT('',(0.000210650103501756,-0.0058,0.00849700465793436));
#1779=CARTESIAN_POINT('',(0.000210650103501756,-0.0127,0.00849700465793436));
#1780=CARTESIAN_POINT('',(-0.0033861306820335,-0.0127,0.00925118830984181));
#1781=CARTESIAN_POINT('',(0.0035967807855352,-0.0058,0.0246458163480926));
#1782=CARTESIAN_POINT('',(0.00284259713362775,-0.0058,0.0210490355625573));
#1783=CARTESIAN_POINT('',(0.00284259713362775,-0.0127,0.0210490355625573));
#1784=CARTESIAN_POINT('',(0.0035967807855352,-0.0127,0.0246458163480926));
#1785=CARTESIAN_POINT('',(0.0153946280382508,-0.0058,0.0184170885324314));
#1786=CARTESIAN_POINT('',(0.0153946280382508,-0.0058,0.0184170885324314));
#1787=CARTESIAN_POINT('',(0.0153946280382508,-0.0127,0.0184170885324314));
#1788=CARTESIAN_POINT('',(0.0153946280382508,-0.0127,0.0184170885324314));
#1789=CARTESIAN_POINT('',(0.0161488116901583,-0.0058,0.0220138693179666));
#1790=CARTESIAN_POINT('',(0.0169029953420657,-0.0058,0.0256106501035019));
#1791=CARTESIAN_POINT('',(0.0169029953420657,-0.0127,0.0256106501035019));
#1792=CARTESIAN_POINT('',(0.0161488116901583,-0.0127,0.0220138693179666));
#1793=CARTESIAN_POINT('',(0.0169029953420657,-0.0058,0.0256106501035019));
#1794=CARTESIAN_POINT('',(0.0043509644374427,-0.0058,0.0282425971336278));
#1795=CARTESIAN_POINT('',(0.0043509644374427,-0.0127,0.0282425971336278));
#1796=CARTESIAN_POINT('',(0.0169029953420657,-0.0127,0.0256106501035019));
#1797=CARTESIAN_POINT('',(0.00359678078553525,-0.0058,0.0246458163480926));
#1798=CARTESIAN_POINT('',(0.0069829114675687,-0.0058,0.0407946280382508));
#1799=CARTESIAN_POINT('',(0.0069829114675687,-0.0127,0.0407946280382508));
#1800=CARTESIAN_POINT('',(0.00359678078553525,-0.0127,0.0246458163480926));
#1801=CARTESIAN_POINT('',(0.0033861306820335,-0.0058,0.0415488116901583));
#1802=CARTESIAN_POINT('',(-0.000210650103501748,-0.0058,0.0423029953420657));
#1803=CARTESIAN_POINT('',(-0.000210650103501748,-0.0127,0.0423029953420657));
#1804=CARTESIAN_POINT('',(0.0033861306820335,-0.0127,0.0415488116901583));
#1805=CARTESIAN_POINT('',(-0.0035967807855352,-0.0058,0.0261541836519075));
#1806=CARTESIAN_POINT('',(-0.00284259713362775,-0.0058,0.0297509644374427));
#1807=CARTESIAN_POINT('',(-0.00284259713362775,-0.0127,0.0297509644374427));
#1808=CARTESIAN_POINT('',(-0.0035967807855352,-0.0127,0.0261541836519075));
#1809=CARTESIAN_POINT('',(0.0169029953420657,-0.0058,0.0256106501035019));
#1810=CARTESIAN_POINT('',(-0.0153946280382508,-0.0058,0.0323829114675687));
#1811=CARTESIAN_POINT('',(-0.0153946280382508,-0.0127,0.0323829114675687));
#1812=CARTESIAN_POINT('',(0.0169029953420657,-0.0127,0.0256106501035019));
#1813=CARTESIAN_POINT('',(-0.0092978006700911,-0.0058,0.027349590392686));
#1814=CARTESIAN_POINT('',(-0.0092978006700911,-0.0127,0.027349590392686));
#1815=CARTESIAN_POINT('',(-0.0092978006700911,-0.0127,0.025787090392686));
#1816=CARTESIAN_POINT('',(-0.0092978006700911,-0.00866,0.027349590392686));
#1817=CARTESIAN_POINT('',(-0.0108603006700911,-0.00866,0.027349590392686));
#1818=CARTESIAN_POINT('',(0.00164176033068289,-0.0058,0.0332297268800768));
#1819=CARTESIAN_POINT('',(0.00164176033068289,-0.0127,0.0332297268800768));
#1820=CARTESIAN_POINT('',(0.00164176033068289,-0.0127,0.0316672268800768));
#1821=CARTESIAN_POINT('',(0.00164176033068289,-0.00866,0.0332297268800768));
#1822=CARTESIAN_POINT('',(7.92603306828947E-5,-0.00866,0.0332297268800768));
#1823=CARTESIAN_POINT('',(0.0092978006700911,-0.0058,0.0234504096073141));
#1824=CARTESIAN_POINT('',(0.0092978006700911,-0.0127,0.0234504096073141));
#1825=CARTESIAN_POINT('',(0.0092978006700911,-0.0127,0.0218879096073141));
#1826=CARTESIAN_POINT('',(0.0092978006700911,-0.00866,0.0234504096073141));
#1827=CARTESIAN_POINT('',(0.0077353006700911,-0.00866,0.0234504096073141));
#1828=CARTESIAN_POINT('',(-0.0016417603306829,-0.0058,0.0175702731199233));
#1829=CARTESIAN_POINT('',(-0.0016417603306829,-0.0127,0.0175702731199233));
#1830=CARTESIAN_POINT('',(-0.0016417603306829,-0.0127,0.0160077731199233));
#1831=CARTESIAN_POINT('',(-0.0016417603306829,-0.00866,0.0175702731199233));
#1832=CARTESIAN_POINT('',(-0.00320426033068291,-0.00866,0.0175702731199233));
#1833=CARTESIAN_POINT('',(-0.0161488116901582,-0.0058,0.0287861306820335));
#1834=CARTESIAN_POINT('',(-0.0161488116901582,-0.0127,0.0287861306820335));
#1835=CARTESIAN_POINT('',(0.0161488116901583,-0.0127,0.0220138693179666));
#1836=CARTESIAN_POINT('',(0.00335278242531651,-0.0127,0.0413897703629068));
#1837=CARTESIAN_POINT('',(0.00335278242531651,-0.0127,0.0433897703629068));
#1838=CARTESIAN_POINT('',(-0.0159897703629067,-0.0127,0.0287527824253165));
#1839=CARTESIAN_POINT('',(-0.0159897703629067,-0.0127,0.0307527824253165));
#1840=CARTESIAN_POINT('',(-0.0033527824253165,-0.0127,0.00941022963709337));
#1841=CARTESIAN_POINT('',(-0.0033527824253165,-0.0127,0.0114102296370934));
#1842=CARTESIAN_POINT('',(0.0159897703629067,-0.0127,0.0220472175746836));
#1843=CARTESIAN_POINT('',(0.0159897703629067,-0.0127,0.0240472175746836));
#1844=CARTESIAN_POINT('',(-1.7347234759768E-17,-0.00866,0.04654));
#1845=CARTESIAN_POINT('',(-1.7347234759768E-17,-0.00866,0.04654));
#1846=CARTESIAN_POINT('',(-1.7347234759768E-17,-0.00866,0.04654));
#1847=CARTESIAN_POINT('',(-1.7347234759768E-17,-0.00866,0.04654));
#1848=CARTESIAN_POINT('',(0.0159897703629067,-0.00601661586121084,0.0220472175746836));
#1849=CARTESIAN_POINT('',(-0.00335278242531651,-0.00601661586121085,0.00941022963709337));
#1850=CARTESIAN_POINT('',(-0.0159897703629067,-0.00601661586121086,0.0287527824253165));
#1851=CARTESIAN_POINT('',(0.00335278242531651,-0.00601661586121085,0.0413897703629068));
#1852=MECHANICAL_DESIGN_GEOMETRIC_PRESENTATION_REPRESENTATION('',(#1095),
#1853);
#1853=(
GEOMETRIC_REPRESENTATION_CONTEXT(3)
GLOBAL_UNCERTAINTY_ASSIGNED_CONTEXT((#1854))
GLOBAL_UNIT_ASSIGNED_CONTEXT((#1857,#1856,#1855))
REPRESENTATION_CONTEXT('Part 1','TOP_LEVEL_ASSEMBLY_PART')
);
#1854=UNCERTAINTY_MEASURE_WITH_UNIT(LENGTH_MEASURE(1.E-8),#1857,
'DISTANCE_ACCURACY_VALUE','Maximum Tolerance applied to model');
#1855=(
NAMED_UNIT(*)
SI_UNIT($,.STERADIAN.)
SOLID_ANGLE_UNIT()
);
#1856=(
NAMED_UNIT(*)
PLANE_ANGLE_UNIT()
SI_UNIT($,.RADIAN.)
);
#1857=(
LENGTH_UNIT()
NAMED_UNIT(*)
SI_UNIT($,.METRE.)
);
#1858=PRODUCT_DEFINITION_SHAPE('','',#1859);
#1859=PRODUCT_DEFINITION('','',#1861,#1860);
#1860=PRODUCT_DEFINITION_CONTEXT('',#1867,'design');
#1861=PRODUCT_DEFINITION_FORMATION_WITH_SPECIFIED_SOURCE('','',#1863,
 .NOT_KNOWN.);
#1862=PRODUCT_RELATED_PRODUCT_CATEGORY('','',(#1863));
#1863=PRODUCT('Part 1','Part 1','Part 1',(#1865));
#1864=PRODUCT_CATEGORY('','');
#1865=PRODUCT_CONTEXT('',#1867,'mechanical');
#1866=APPLICATION_PROTOCOL_DEFINITION('international standard',
'ap242_managed_model_based_3d_engineering',2020,#1867);
#1867=APPLICATION_CONTEXT('managed model based 3d engineering');
ENDSEC;
END-ISO-10303-21;
