ISO-10303-21;
HEADER;
/* Generated by software containing ST-Developer
 * from STEP Tools, Inc. (www.steptools.com) 
 */
/* OPTION: using custom renumber hook */

FILE_DESCRIPTION(
/* description */ ('STEP AP242 Edition 2',
'CAx-IF Rec.Pracs.---Representation and Presentation of Product Manufa
cturing Information (PMI)---4.0---2014-10-13',
'CAx-IF Rec.Pracs.---3D Tessellated Geometry---0.4---2014-09-14','2;1',
'CAx-IF Rec.Pracs.---User Defined Attributes---1.5---2016-08-15'),
/* implementation_level */ '2;1');

FILE_NAME(
/* name */ 'LID',
/* time_stamp */ '2026-09-15T17:00:19Z',
/* author */ (''),
/* organization */ (''),
/* preprocessor_version */ 'ST-DEVELOPER v20',
/* originating_system */ 'ONSHAPE BY PTC INC, 1.220',
/* authorisation */ '  ');

FILE_SCHEMA (('AP242_MANAGED_MODEL_BASED_3D_ENGINEERING_MIM_LF { 1 0 10303 442 3 1 4 }'));
ENDSEC;

DATA;
#10=SHAPE_REPRESENTATION_RELATIONSHIP('','',#132,#11);
#11=ADVANCED_BREP_SHAPE_REPRESENTATION('',(#130),#214);
#12=CIRCLE('',#137,0.1524);
#13=CIRCLE('',#138,0.1524);
#14=CIRCLE('',#140,0.1524);
#15=CIRCLE('',#141,0.1524);
#16=CYLINDRICAL_SURFACE('',#136,0.1524);
#17=CYLINDRICAL_SURFACE('',#139,0.1524);
#18=ORIENTED_EDGE('',*,*,#48,.F.);
#19=ORIENTED_EDGE('',*,*,#49,.F.);
#20=ORIENTED_EDGE('',*,*,#50,.T.);
#21=ORIENTED_EDGE('',*,*,#51,.T.);
#22=ORIENTED_EDGE('',*,*,#52,.T.);
#23=ORIENTED_EDGE('',*,*,#53,.F.);
#24=ORIENTED_EDGE('',*,*,#54,.F.);
#25=ORIENTED_EDGE('',*,*,#49,.T.);
#26=ORIENTED_EDGE('',*,*,#55,.T.);
#27=ORIENTED_EDGE('',*,*,#56,.F.);
#28=ORIENTED_EDGE('',*,*,#57,.F.);
#29=ORIENTED_EDGE('',*,*,#53,.T.);
#30=ORIENTED_EDGE('',*,*,#58,.T.);
#31=ORIENTED_EDGE('',*,*,#59,.F.);
#32=ORIENTED_EDGE('',*,*,#60,.F.);
#33=ORIENTED_EDGE('',*,*,#56,.T.);
#34=ORIENTED_EDGE('',*,*,#61,.F.);
#35=ORIENTED_EDGE('',*,*,#51,.F.);
#36=ORIENTED_EDGE('',*,*,#62,.T.);
#37=ORIENTED_EDGE('',*,*,#59,.T.);
#38=ORIENTED_EDGE('',*,*,#50,.F.);
#39=ORIENTED_EDGE('',*,*,#54,.T.);
#40=ORIENTED_EDGE('',*,*,#57,.T.);
#41=ORIENTED_EDGE('',*,*,#60,.T.);
#42=ORIENTED_EDGE('',*,*,#62,.F.);
#43=ORIENTED_EDGE('',*,*,#48,.T.);
#44=ORIENTED_EDGE('',*,*,#61,.T.);
#45=ORIENTED_EDGE('',*,*,#58,.F.);
#46=ORIENTED_EDGE('',*,*,#55,.F.);
#47=ORIENTED_EDGE('',*,*,#52,.F.);
#48=EDGE_CURVE('',#63,#64,#73,.T.);
#49=EDGE_CURVE('',#65,#63,#74,.T.);
#50=EDGE_CURVE('',#65,#66,#75,.T.);
#51=EDGE_CURVE('',#66,#64,#76,.T.);
#52=EDGE_CURVE('',#63,#67,#77,.T.);
#53=EDGE_CURVE('',#68,#67,#78,.T.);
#54=EDGE_CURVE('',#65,#68,#79,.T.);
#55=EDGE_CURVE('',#67,#69,#12,.T.);
#56=EDGE_CURVE('',#70,#69,#80,.T.);
#57=EDGE_CURVE('',#68,#70,#13,.T.);
#58=EDGE_CURVE('',#69,#71,#14,.T.);
#59=EDGE_CURVE('',#72,#71,#81,.T.);
#60=EDGE_CURVE('',#70,#72,#15,.T.);
#61=EDGE_CURVE('',#64,#71,#82,.T.);
#62=EDGE_CURVE('',#66,#72,#83,.T.);
#63=VERTEX_POINT('',#183);
#64=VERTEX_POINT('',#184);
#65=VERTEX_POINT('',#186);
#66=VERTEX_POINT('',#188);
#67=VERTEX_POINT('',#192);
#68=VERTEX_POINT('',#194);
#69=VERTEX_POINT('',#198);
#70=VERTEX_POINT('',#200);
#71=VERTEX_POINT('',#204);
#72=VERTEX_POINT('',#206);
#73=LINE('',#182,#84);
#74=LINE('',#185,#85);
#75=LINE('',#187,#86);
#76=LINE('',#189,#87);
#77=LINE('',#191,#88);
#78=LINE('',#193,#89);
#79=LINE('',#195,#90);
#80=LINE('',#199,#91);
#81=LINE('',#205,#92);
#82=LINE('',#209,#93);
#83=LINE('',#210,#94);
#84=VECTOR('',#149,1.);
#85=VECTOR('',#150,1.);
#86=VECTOR('',#151,1.);
#87=VECTOR('',#152,1.);
#88=VECTOR('',#155,1.);
#89=VECTOR('',#156,1.);
#90=VECTOR('',#157,1.);
#91=VECTOR('',#162,1.);
#92=VECTOR('',#169,1.);
#93=VECTOR('',#174,1.);
#94=VECTOR('',#175,1.);
#95=EDGE_LOOP('',(#18,#19,#20,#21));
#96=EDGE_LOOP('',(#22,#23,#24,#25));
#97=EDGE_LOOP('',(#26,#27,#28,#29));
#98=EDGE_LOOP('',(#30,#31,#32,#33));
#99=EDGE_LOOP('',(#34,#35,#36,#37));
#100=EDGE_LOOP('',(#38,#39,#40,#41,#42));
#101=EDGE_LOOP('',(#43,#44,#45,#46,#47));
#102=FACE_BOUND('',#95,.T.);
#103=FACE_BOUND('',#96,.T.);
#104=FACE_BOUND('',#97,.T.);
#105=FACE_BOUND('',#98,.T.);
#106=FACE_BOUND('',#99,.T.);
#107=FACE_BOUND('',#100,.T.);
#108=FACE_BOUND('',#101,.T.);
#109=PLANE('',#134);
#110=PLANE('',#135);
#111=PLANE('',#142);
#112=PLANE('',#143);
#113=PLANE('',#144);
#114=ADVANCED_FACE('',(#102),#109,.T.);
#115=ADVANCED_FACE('',(#103),#110,.F.);
#116=ADVANCED_FACE('',(#104),#16,.T.);
#117=ADVANCED_FACE('',(#105),#17,.T.);
#118=ADVANCED_FACE('',(#106),#111,.T.);
#119=ADVANCED_FACE('',(#107),#112,.T.);
#120=ADVANCED_FACE('',(#108),#113,.F.);
#121=CLOSED_SHELL('',(#114,#115,#116,#117,#118,#119,#120));
#122=STYLED_ITEM('',(#123),#130);
#123=PRESENTATION_STYLE_ASSIGNMENT((#124));
#124=SURFACE_STYLE_USAGE(.BOTH.,#125);
#125=SURFACE_SIDE_STYLE('',(#126));
#126=SURFACE_STYLE_FILL_AREA(#127);
#127=FILL_AREA_STYLE('',(#128));
#128=FILL_AREA_STYLE_COLOUR('',#129);
#129=COLOUR_RGB('',0.866666666666667,0.51764705882353,0.776470588235294);
#130=MANIFOLD_SOLID_BREP('Part 1',#121);
#131=SHAPE_DEFINITION_REPRESENTATION(#219,#132);
#132=SHAPE_REPRESENTATION('Part 1',(#133),#214);
#133=AXIS2_PLACEMENT_3D('',#180,#145,#146);
#134=AXIS2_PLACEMENT_3D('',#181,#147,#148);
#135=AXIS2_PLACEMENT_3D('',#190,#153,#154);
#136=AXIS2_PLACEMENT_3D('',#196,#158,#159);
#137=AXIS2_PLACEMENT_3D('',#197,#160,#161);
#138=AXIS2_PLACEMENT_3D('',#201,#163,#164);
#139=AXIS2_PLACEMENT_3D('',#202,#165,#166);
#140=AXIS2_PLACEMENT_3D('',#203,#167,#168);
#141=AXIS2_PLACEMENT_3D('',#207,#170,#171);
#142=AXIS2_PLACEMENT_3D('',#208,#172,#173);
#143=AXIS2_PLACEMENT_3D('',#211,#176,#177);
#144=AXIS2_PLACEMENT_3D('',#212,#178,#179);
#145=DIRECTION('',(0.,0.,1.));
#146=DIRECTION('',(1.,0.,0.));
#147=DIRECTION('',(1.82123199577617E-16,-1.,0.));
#148=DIRECTION('',(1.,1.82123199577617E-16,0.));
#149=DIRECTION('',(-1.,-1.82123199577617E-16,0.));
#150=DIRECTION('',(0.,0.,-1.));
#151=DIRECTION('',(-1.,-1.82123199577617E-16,0.));
#152=DIRECTION('',(0.,0.,-1.));
#153=DIRECTION('',(-1.,-3.64246399155235E-16,0.));
#154=DIRECTION('',(3.64246399155235E-16,-1.,0.));
#155=DIRECTION('',(-3.64246399155235E-16,1.,0.));
#156=DIRECTION('',(0.,0.,-1.));
#157=DIRECTION('',(-3.64246399155235E-16,1.,0.));
#158=DIRECTION('',(0.,0.,-1.));
#159=DIRECTION('',(-1.,0.,0.));
#160=DIRECTION('',(0.,0.,1.));
#161=DIRECTION('',(1.,0.,0.));
#162=DIRECTION('',(0.,0.,-1.));
#163=DIRECTION('',(0.,0.,1.));
#164=DIRECTION('',(1.,0.,0.));
#165=DIRECTION('',(0.,0.,-1.));
#166=DIRECTION('',(-1.,0.,0.));
#167=DIRECTION('',(0.,0.,1.));
#168=DIRECTION('',(1.,0.,0.));
#169=DIRECTION('',(0.,0.,-1.));
#170=DIRECTION('',(0.,0.,1.));
#171=DIRECTION('',(1.,0.,0.));
#172=DIRECTION('',(-1.,-1.82123199577617E-16,0.));
#173=DIRECTION('',(1.82123199577617E-16,-1.,0.));
#174=DIRECTION('',(-1.82123199577617E-16,1.,0.));
#175=DIRECTION('',(-1.82123199577617E-16,1.,0.));
#176=DIRECTION('',(0.,0.,1.));
#177=DIRECTION('',(1.,0.,0.));
#178=DIRECTION('',(0.,0.,1.));
#179=DIRECTION('',(1.,0.,0.));
#180=CARTESIAN_POINT('',(0.,0.,0.));
#181=CARTESIAN_POINT('',(0.0492508146813694,-0.0728296162367104,0.003));
#182=CARTESIAN_POINT('',(0.0492508146813694,-0.0728296162367104,0.));
#183=CARTESIAN_POINT('',(0.125450814681369,-0.0728296162367104,0.));
#184=CARTESIAN_POINT('',(-0.0269491853186307,-0.0728296162367104,0.));
#185=CARTESIAN_POINT('',(0.125450814681369,-0.0728296162367104,0.003));
#186=CARTESIAN_POINT('',(0.125450814681369,-0.0728296162367104,0.003));
#187=CARTESIAN_POINT('',(0.0492508146813694,-0.0728296162367104,0.003));
#188=CARTESIAN_POINT('',(-0.0269491853186307,-0.0728296162367104,0.003));
#189=CARTESIAN_POINT('',(-0.0269491853186307,-0.0728296162367104,0.003));
#190=CARTESIAN_POINT('',(0.125450814681369,0.00337038376328966,0.003));
#191=CARTESIAN_POINT('',(0.125450814681369,0.00337038376328966,0.));
#192=CARTESIAN_POINT('',(0.125450814681369,0.0795703837632897,0.));
#193=CARTESIAN_POINT('',(0.125450814681369,0.0795703837632897,0.003));
#194=CARTESIAN_POINT('',(0.125450814681369,0.0795703837632897,0.003));
#195=CARTESIAN_POINT('',(0.125450814681369,0.00337038376328966,0.003));
#196=CARTESIAN_POINT('',(-0.0269491853186308,0.0795703837632897,0.003));
#197=CARTESIAN_POINT('',(-0.0269491853186308,0.0795703837632897,0.));
#198=CARTESIAN_POINT('',(0.0492508146813692,0.211552655300038,0.));
#199=CARTESIAN_POINT('',(0.0492508146813692,0.211552655300038,0.003));
#200=CARTESIAN_POINT('',(0.0492508146813692,0.211552655300038,0.003));
#201=CARTESIAN_POINT('',(-0.0269491853186308,0.0795703837632897,0.003));
#202=CARTESIAN_POINT('',(0.125450814681369,0.0795703837632896,0.003));
#203=CARTESIAN_POINT('',(0.125450814681369,0.0795703837632896,0.));
#204=CARTESIAN_POINT('',(-0.0269491853186307,0.0795703837632895,0.));
#205=CARTESIAN_POINT('',(-0.0269491853186307,0.0795703837632895,0.003));
#206=CARTESIAN_POINT('',(-0.0269491853186307,0.0795703837632895,0.003));
#207=CARTESIAN_POINT('',(0.125450814681369,0.0795703837632896,0.003));
#208=CARTESIAN_POINT('',(-0.0269491853186307,0.00337038376328963,0.003));
#209=CARTESIAN_POINT('',(-0.0269491853186307,0.00337038376328963,0.));
#210=CARTESIAN_POINT('',(-0.0269491853186307,0.00337038376328963,0.003));
#211=CARTESIAN_POINT('',(0.0492508146813694,0.0693615195316639,0.003));
#212=CARTESIAN_POINT('',(0.0492508146813694,0.0693615195316639,0.));
#213=MECHANICAL_DESIGN_GEOMETRIC_PRESENTATION_REPRESENTATION('',(#122),
#214);
#214=(
GEOMETRIC_REPRESENTATION_CONTEXT(3)
GLOBAL_UNCERTAINTY_ASSIGNED_CONTEXT((#215))
GLOBAL_UNIT_ASSIGNED_CONTEXT((#218,#217,#216))
REPRESENTATION_CONTEXT('Part 1','TOP_LEVEL_ASSEMBLY_PART')
);
#215=UNCERTAINTY_MEASURE_WITH_UNIT(LENGTH_MEASURE(1.E-8),#218,
'DISTANCE_ACCURACY_VALUE','Maximum Tolerance applied to model');
#216=(
NAMED_UNIT(*)
SI_UNIT($,.STERADIAN.)
SOLID_ANGLE_UNIT()
);
#217=(
NAMED_UNIT(*)
PLANE_ANGLE_UNIT()
SI_UNIT($,.RADIAN.)
);
#218=(
LENGTH_UNIT()
NAMED_UNIT(*)
SI_UNIT($,.METRE.)
);
#219=PRODUCT_DEFINITION_SHAPE('','',#220);
#220=PRODUCT_DEFINITION('','',#222,#221);
#221=PRODUCT_DEFINITION_CONTEXT('',#228,'design');
#222=PRODUCT_DEFINITION_FORMATION_WITH_SPECIFIED_SOURCE('','',#224,
 .NOT_KNOWN.);
#223=PRODUCT_RELATED_PRODUCT_CATEGORY('','',(#224));
#224=PRODUCT('Part 1','Part 1','Part 1',(#226));
#225=PRODUCT_CATEGORY('','');
#226=PRODUCT_CONTEXT('',#228,'mechanical');
#227=APPLICATION_PROTOCOL_DEFINITION('international standard',
'ap242_managed_model_based_3d_engineering',2020,#228);
#228=APPLICATION_CONTEXT('managed model based 3d engineering');
ENDSEC;
END-ISO-10303-21;
